<?xml version="1.0" encoding="utf-8"?>
<!-- Generator: Adobe Illustrator 16.2.1, SVG Export Plug-In . SVG Version: 6.00 Build 0)  -->
<!DOCTYPE svg PUBLIC "-//W3C//DTD SVG 1.1//EN" "http://www.w3.org/Graphics/SVG/1.1/DTD/svg11.dtd">
<svg version="1.1" xmlns="http://www.w3.org/2000/svg" xmlns:xlink="http://www.w3.org/1999/xlink" x="0px" y="0px" width="800px"
	 height="800px" viewBox="0 0 800 800" enable-background="new 0 0 800 800" xml:space="preserve">
<g id="background">
</g>
<g id="objects">
	<defs>
		<rect id="SVGID_1_" width="800" height="800"/>
	</defs>
	<clipPath id="SVGID_2_">
		<use xlink:href="#SVGID_1_"  overflow="visible" opacity="0.5"/>
	</clipPath>
	<g opacity="0.5" clip-path="url(#SVGID_2_)">
		<polygon fill="#FFFFFF" points="0.808,207.947 -16.222,178.452 0.808,148.956 34.866,148.956 51.896,178.452 34.866,207.947 		"/>
		<polygon fill="#FFFFFF" points="204.628,207.947 187.599,178.452 204.628,148.956 238.687,148.956 255.716,178.452 
			238.687,207.947 		"/>
		<polygon fill="#FFFFFF" points="408.448,207.947 391.419,178.452 408.448,148.956 442.507,148.956 459.536,178.452 
			442.507,207.947 		"/>
		<polygon fill="#FFFFFF" points="714.179,207.947 697.149,178.452 714.179,148.956 748.237,148.956 765.267,178.452 
			748.237,207.947 		"/>
		<polygon fill="#FFFFFF" points="765.134,237.443 748.104,207.947 765.134,178.452 799.192,178.452 816.222,207.947 
			799.192,237.443 		"/>
		<polygon fill="#E8EDF0" points="51.763,296.443 34.733,266.947 51.763,237.452 85.821,237.452 102.851,266.947 85.821,296.443 		
			"/>
		<polygon fill="#E8EDF0" points="102.718,266.947 85.688,237.452 102.718,207.956 136.776,207.956 153.806,237.452 
			136.776,266.947 		"/>
		<polygon fill="#FFFFFF" points="408.448,266.947 391.419,237.452 408.448,207.956 442.507,207.956 459.536,237.452 
			442.507,266.947 		"/>
		<polygon fill="#FFFFFF" points="510.358,266.947 493.329,237.452 510.358,207.956 544.417,207.956 561.446,237.452 
			544.417,266.947 		"/>
		<polygon fill="#FFFFFF" points="102.718,561.949 85.688,532.453 102.718,502.957 136.776,502.957 153.806,532.453 
			136.776,561.949 		"/>
		<polygon fill="#FFFFFF" points="153.673,591.444 136.644,561.949 153.673,532.453 187.731,532.453 204.761,561.949 
			187.731,591.444 		"/>
		<polygon fill="#FFFFFF" points="0.808,620.949 -16.222,591.453 0.808,561.957 34.866,561.957 51.896,591.453 34.866,620.949 		"/>
		<polygon fill="#FFFFFF" points="51.763,650.444 34.733,620.949 51.763,591.453 85.821,591.453 102.851,620.949 85.821,650.444 		
			"/>
		<polygon fill="#FFFFFF" points="306.538,620.949 289.509,591.453 306.538,561.957 340.597,561.957 357.626,591.453 
			340.597,620.949 		"/>
		<polygon fill="#FFFFFF" points="357.493,650.444 340.464,620.949 357.493,591.453 391.552,591.453 408.581,620.949 
			391.552,650.444 		"/>
		<polygon fill="#FFFFFF" points="408.448,620.949 391.419,591.453 408.448,561.957 442.507,561.957 459.536,591.453 
			442.507,620.949 		"/>
		<polygon fill="#FFFFFF" points="459.403,650.444 442.374,620.949 459.403,591.453 493.462,591.453 510.491,620.949 
			493.462,650.444 		"/>
		<polygon fill="#FFFFFF" points="510.358,620.949 493.329,591.453 510.358,561.957 544.417,561.957 561.446,591.453 
			544.417,620.949 		"/>
		<polygon fill="#FFFFFF" points="612.269,620.949 595.239,591.453 612.269,561.957 646.327,561.957 663.356,591.453 
			646.327,620.949 		"/>
		<polygon fill="#B5C1C9" points="255.583,650.444 238.554,620.949 255.583,591.453 289.642,591.453 306.671,620.949 
			289.642,650.444 		"/>
		<polygon fill="#C4D0D7" points="663.224,650.444 646.194,620.949 663.224,591.453 697.282,591.453 714.312,620.949 
			697.282,650.444 		"/>
		<polygon fill="#C4D0D7" points="765.134,650.444 748.104,620.949 765.134,591.453 799.192,591.453 816.222,620.949 
			799.192,650.444 		"/>
		<polygon fill="#ECF0F3" points="255.583,237.443 238.554,207.947 255.583,178.452 289.642,178.452 306.671,207.947 
			289.642,237.443 		"/>
		<polygon fill="#E8EDF0" points="561.313,237.443 544.284,207.947 561.313,178.452 595.372,178.452 612.401,207.947 
			595.372,237.443 		"/>
		<polygon fill="#E8EDF0" points="663.224,237.443 646.194,207.947 663.224,178.452 697.282,178.452 714.312,207.947 
			697.282,237.443 		"/>
		<polygon fill="#E8EDF0" points="204.628,620.949 187.599,591.453 204.628,561.957 238.687,561.957 255.716,591.453 
			238.687,620.949 		"/>
	</g>
	<g opacity="0.5" clip-path="url(#SVGID_2_)">
		
			<image overflow="visible" opacity="0.5" width="840" height="450" xlink:href="678CEA7065FE507D.png"  transform="matrix(1 0 0 1 -20 145)">
		</image>
		<g>
			<g>
				<polygon fill="#B5C1C9" points="153.673,237.443 136.644,207.947 153.673,178.452 187.731,178.452 204.761,207.947 
					187.731,237.443 				"/>
				<polygon fill="#B5C1C9" points="612.269,207.947 595.239,178.452 612.269,148.956 646.327,148.956 663.356,178.452 
					646.327,207.947 				"/>
				<polygon fill="#B5C1C9" points="0.808,266.947 -16.222,237.452 0.808,207.956 34.866,207.956 51.896,237.452 34.866,266.947 
									"/>
				<polygon fill="#B5C1C9" points="204.628,266.947 187.599,237.452 204.628,207.956 238.687,207.956 255.716,237.452 
					238.687,266.947 				"/>
				<polygon fill="#D6DEE4" points="255.583,296.443 238.554,266.947 255.583,237.452 289.642,237.452 306.671,266.947 
					289.642,296.443 				"/>
				<polygon fill="#B5C1C9" points="357.493,296.443 340.464,266.947 357.493,237.452 391.552,237.452 408.581,266.947 
					391.552,296.443 				"/>
				<polygon fill="#E8EDF0" points="459.403,296.443 442.374,266.947 459.403,237.452 493.462,237.452 510.491,266.947 
					493.462,296.443 				"/>
				<polygon fill="#B5C1C9" points="561.313,296.443 544.284,266.947 561.313,237.452 595.372,237.452 612.401,266.947 
					595.372,296.443 				"/>
				<polygon fill="#FFFFFF" points="663.224,296.443 646.194,266.947 663.224,237.452 697.282,237.452 714.312,266.947 
					697.282,296.443 				"/>
				<polygon fill="#B5C1C9" points="714.179,266.947 697.149,237.452 714.179,207.956 748.237,207.956 765.267,237.452 
					748.237,266.947 				"/>
				<polygon fill="#B5C1C9" points="765.134,296.443 748.104,266.947 765.134,237.452 799.192,237.452 816.222,266.947 
					799.192,296.443 				"/>
				<polygon fill="#FFFFFF" points="0.808,325.948 -16.222,296.452 0.808,266.956 34.866,266.956 51.896,296.452 34.866,325.948 
									"/>
				<polygon fill="#E8EDF0" points="51.763,355.443 34.733,325.948 51.763,296.452 85.821,296.452 102.851,325.948 85.821,355.443 
									"/>
				<polygon fill="#B5C1C9" points="102.718,325.948 85.688,296.452 102.718,266.956 136.776,266.956 153.806,296.452 
					136.776,325.948 				"/>
				<polygon fill="#B5C1C9" points="153.673,355.443 136.644,325.948 153.673,296.452 187.731,296.452 204.761,325.948 
					187.731,355.443 				"/>
				<polygon fill="#D6DEE4" points="255.583,355.443 238.554,325.948 255.583,296.452 289.642,296.452 306.671,325.948 
					289.642,355.443 				"/>
				<polygon fill="#B5C1C9" points="306.538,325.948 289.509,296.452 306.538,266.956 340.597,266.956 357.626,296.452 
					340.597,325.948 				"/>
				<polygon fill="#D6DEE4" points="357.493,355.443 340.464,325.948 357.493,296.452 391.552,296.452 408.581,325.948 
					391.552,355.443 				"/>
				<polygon fill="#FFFFFF" points="408.448,325.948 391.419,296.452 408.448,266.956 442.507,266.956 459.536,296.452 
					442.507,325.948 				"/>
				<polygon fill="#B5C1C9" points="459.403,355.443 442.374,325.948 459.403,296.452 493.462,296.452 510.491,325.948 
					493.462,355.443 				"/>
				<polygon fill="#D6DEE4" points="510.358,325.948 493.329,296.452 510.358,266.956 544.417,266.956 561.446,296.452 
					544.417,325.948 				"/>
				<polygon fill="#FFFFFF" points="561.313,355.443 544.284,325.948 561.313,296.452 595.372,296.452 612.401,325.948 
					595.372,355.443 				"/>
				<polygon fill="#B5C1C9" points="612.269,325.948 595.239,296.452 612.269,266.956 646.327,266.956 663.356,296.452 
					646.327,325.948 				"/>
				<polygon fill="#ECF0F3" points="663.224,355.443 646.194,325.948 663.224,296.452 697.282,296.452 714.312,325.948 
					697.282,355.443 				"/>
				<polygon fill="#FFFFFF" points="714.179,325.948 697.149,296.452 714.179,266.956 748.237,266.956 765.267,296.452 
					748.237,325.948 				"/>
				<polygon fill="#D6DEE4" points="765.134,355.443 748.104,325.948 765.134,296.452 799.192,296.452 816.222,325.948 
					799.192,355.443 				"/>
				<polygon fill="#ECF0F3" points="0.808,384.948 -16.222,355.452 0.808,325.956 34.866,325.956 51.896,355.452 34.866,384.948 
									"/>
				<polygon fill="#FFFFFF" points="51.763,414.444 34.733,384.948 51.763,355.452 85.821,355.452 102.851,384.948 85.821,414.444 
									"/>
				<polygon fill="#D6DEE4" points="102.718,384.948 85.688,355.452 102.718,325.956 136.776,325.956 153.806,355.452 
					136.776,384.948 				"/>
				<polygon fill="#D6DEE4" points="153.673,414.444 136.644,384.948 153.673,355.452 187.731,355.452 204.761,384.948 
					187.731,414.444 				"/>
				<polygon fill="#FFFFFF" points="204.628,384.948 187.599,355.452 204.628,325.956 238.687,325.956 255.716,355.452 
					238.687,384.948 				"/>
				<polygon fill="#ECF0F3" points="306.538,384.948 289.509,355.452 306.538,325.956 340.597,325.956 357.626,355.452 
					340.597,384.948 				"/>
				<polygon fill="#ECF0F3" points="408.448,384.948 391.419,355.452 408.448,325.956 442.507,325.956 459.536,355.452 
					442.507,384.948 				"/>
				<polygon fill="#D6DEE4" points="459.403,414.444 442.374,384.948 459.403,355.452 493.462,355.452 510.491,384.948 
					493.462,414.444 				"/>
				<polygon fill="#E8EDF0" points="510.358,384.948 493.329,355.452 510.358,325.956 544.417,325.956 561.446,355.452 
					544.417,384.948 				"/>
				<polygon fill="#D6DEE4" points="561.313,414.444 544.284,384.948 561.313,355.452 595.372,355.452 612.401,384.948 
					595.372,414.444 				"/>
				<polygon fill="#B5C1C9" points="663.224,414.444 646.194,384.948 663.224,355.452 697.282,355.452 714.312,384.948 
					697.282,414.444 				"/>
				<polygon fill="#ECF0F3" points="714.179,384.948 697.149,355.452 714.179,325.956 748.237,325.956 765.267,355.452 
					748.237,384.948 				"/>
				<polygon fill="#D6DEE4" points="765.134,414.444 748.104,384.948 765.134,355.452 799.192,355.452 816.222,384.948 
					799.192,414.444 				"/>
				<polygon fill="#ECF0F3" points="0.808,443.949 -16.222,414.453 0.808,384.956 34.866,384.956 51.896,414.453 34.866,443.949 
									"/>
				<polygon fill="#D6DEE4" points="51.763,473.444 34.733,443.949 51.763,414.453 85.821,414.453 102.851,443.949 85.821,473.444 
									"/>
				<polygon fill="#ECF0F3" points="153.673,473.444 136.644,443.949 153.673,414.453 187.731,414.453 204.761,443.949 
					187.731,473.444 				"/>
				<polygon fill="#E8EDF0" points="204.628,443.949 187.599,414.453 204.628,384.956 238.687,384.956 255.716,414.453 
					238.687,443.949 				"/>
				<polygon fill="#D6DEE4" points="255.583,473.444 238.554,443.949 255.583,414.453 289.642,414.453 306.671,443.949 
					289.642,473.444 				"/>
				<polygon fill="#FFFFFF" points="306.538,443.949 289.509,414.453 306.538,384.956 340.597,384.956 357.626,414.453 
					340.597,443.949 				"/>
				<polygon fill="#B5C1C9" points="357.493,473.444 340.464,443.949 357.493,414.453 391.552,414.453 408.581,443.949 
					391.552,473.444 				"/>
				<polygon fill="#FFFFFF" points="408.448,443.949 391.419,414.453 408.448,384.956 442.507,384.956 459.536,414.453 
					442.507,443.949 				"/>
				<polygon fill="#D6DEE4" points="459.403,473.444 442.374,443.949 459.403,414.453 493.462,414.453 510.491,443.949 
					493.462,473.444 				"/>
				<polygon fill="#D6DEE4" points="510.358,443.949 493.329,414.453 510.358,384.956 544.417,384.956 561.446,414.453 
					544.417,443.949 				"/>
				<polygon fill="#FFFFFF" points="561.313,473.444 544.284,443.949 561.313,414.453 595.372,414.453 612.401,443.949 
					595.372,473.444 				"/>
				<polygon fill="#E8EDF0" points="612.269,443.949 595.239,414.453 612.269,384.956 646.327,384.956 663.356,414.453 
					646.327,443.949 				"/>
				<polygon fill="#FFFFFF" points="663.224,473.444 646.194,443.949 663.224,414.453 697.282,414.453 714.312,443.949 
					697.282,473.444 				"/>
				<polygon fill="#B5C1C9" points="765.134,473.444 748.104,443.949 765.134,414.453 799.192,414.453 816.222,443.949 
					799.192,473.444 				"/>
				<polygon fill="#D6DEE4" points="0.808,502.949 -16.222,473.453 0.808,443.957 34.866,443.957 51.896,473.453 34.866,502.949 
									"/>
				<polygon fill="#D6DEE4" points="51.763,532.444 34.733,502.949 51.763,473.453 85.821,473.453 102.851,502.949 85.821,532.444 
									"/>
				<polygon fill="#B5C1C9" points="102.718,502.949 85.688,473.453 102.718,443.957 136.776,443.957 153.806,473.453 
					136.776,502.949 				"/>
				<polygon fill="#D6DEE4" points="153.673,532.444 136.644,502.949 153.673,473.453 187.731,473.453 204.761,502.949 
					187.731,532.444 				"/>
				<polygon fill="#E8EDF0" points="204.628,502.949 187.599,473.453 204.628,443.957 238.687,443.957 255.716,473.453 
					238.687,502.949 				"/>
				<polygon fill="#FFFFFF" points="255.583,532.444 238.554,502.949 255.583,473.453 289.642,473.453 306.671,502.949 
					289.642,532.444 				"/>
				<polygon fill="#B5C1C9" points="306.538,502.949 289.509,473.453 306.538,443.957 340.597,443.957 357.626,473.453 
					340.597,502.949 				"/>
				<polygon fill="#D6DEE4" points="357.493,532.444 340.464,502.949 357.493,473.453 391.552,473.453 408.581,502.949 
					391.552,532.444 				"/>
				<polygon fill="#B5C1C9" points="510.358,502.949 493.329,473.453 510.358,443.957 544.417,443.957 561.446,473.453 
					544.417,502.949 				"/>
				<polygon fill="#FFFFFF" points="561.313,532.444 544.284,502.949 561.313,473.453 595.372,473.453 612.401,502.949 
					595.372,532.444 				"/>
				<polygon fill="#D6DEE4" points="612.269,502.949 595.239,473.453 612.269,443.957 646.327,443.957 663.356,473.453 
					646.327,502.949 				"/>
				<polygon fill="#D6DEE4" points="663.224,532.444 646.194,502.949 663.224,473.453 697.282,473.453 714.312,502.949 
					697.282,532.444 				"/>
				<polygon fill="#FFFFFF" points="714.179,502.949 697.149,473.453 714.179,443.957 748.237,443.957 765.267,473.453 
					748.237,502.949 				"/>
				<polygon fill="#FFFFFF" points="765.134,532.444 748.104,502.949 765.134,473.453 799.192,473.453 816.222,502.949 
					799.192,532.444 				"/>
				<polygon fill="#FFFFFF" points="0.808,561.949 -16.222,532.453 0.808,502.957 34.866,502.957 51.896,532.453 34.866,561.949 
									"/>
				<polygon fill="#FFFFFF" points="255.583,591.444 238.554,561.949 255.583,532.453 289.642,532.453 306.671,561.949 
					289.642,591.444 				"/>
				<polygon fill="#D6DEE4" points="306.538,561.949 289.509,532.453 306.538,502.957 340.597,502.957 357.626,532.453 
					340.597,561.949 				"/>
				<polygon fill="#B5C1C9" points="357.493,591.444 340.464,561.949 357.493,532.453 391.552,532.453 408.581,561.949 
					391.552,591.444 				"/>
				<polygon fill="#FFFFFF" points="408.448,561.949 391.419,532.453 408.448,502.957 442.507,502.957 459.536,532.453 
					442.507,561.949 				"/>
				<polygon fill="#D6DEE4" points="459.403,591.444 442.374,561.949 459.403,532.453 493.462,532.453 510.491,561.949 
					493.462,591.444 				"/>
				<polygon fill="#ECF0F3" points="510.358,561.949 493.329,532.453 510.358,502.957 544.417,502.957 561.446,532.453 
					544.417,561.949 				"/>
				<polygon fill="#FFFFFF" points="663.224,591.444 646.194,561.949 663.224,532.453 697.282,532.453 714.312,561.949 
					697.282,591.444 				"/>
				<polygon fill="#C4D0D7" points="714.179,561.949 697.149,532.453 714.179,502.957 748.237,502.957 765.267,532.453 
					748.237,561.949 				"/>
				<polygon fill="#ECF0F3" points="765.134,591.444 748.104,561.949 765.134,532.453 799.192,532.453 816.222,561.949 
					799.192,591.444 				"/>
			</g>
		</g>
	</g>
	<g opacity="0.5" clip-path="url(#SVGID_2_)">
		<g>
			<g>
				<polygon fill="#ECF0F3" points="357.493,237.443 340.464,207.947 357.493,178.452 391.552,178.452 408.581,207.947 
					391.552,237.443 				"/>
				<polygon fill="#FFFFFF" points="612.269,266.947 595.239,237.452 612.269,207.956 646.327,207.956 663.356,237.452 
					646.327,266.947 				"/>
				<polygon fill="#D6DEE4" points="204.628,325.948 187.599,296.452 204.628,266.956 238.687,266.956 255.716,296.452 
					238.687,325.948 				"/>
				<polygon fill="#FFFFFF" points="357.493,414.444 340.464,384.948 357.493,355.452 391.552,355.452 408.581,384.948 
					391.552,414.444 				"/>
				<polygon fill="#FFFFFF" points="459.403,532.444 442.374,502.949 459.403,473.453 493.462,473.453 510.491,502.949 
					493.462,532.444 				"/>
				<polygon fill="#E8EDF0" points="51.763,591.444 34.733,561.949 51.763,532.453 85.821,532.453 102.851,561.949 85.821,591.444 
									"/>
				<polygon fill="#FFFFFF" points="714.179,620.949 697.149,591.453 714.179,561.957 748.237,561.957 765.267,591.453 
					748.237,620.949 				"/>
			</g>
		</g>
		<defs>
			<filter id="Adobe_OpacityMaskFilter" filterUnits="userSpaceOnUse" x="34.733" y="178.452" width="730.533" height="442.498">
				
					<feColorMatrix  type="matrix" values="-1 0 0 0 1  0 -1 0 0 1  0 0 -1 0 1  0 0 0 1 0" color-interpolation-filters="sRGB" result="source"/>
			</filter>
		</defs>
		<mask maskUnits="userSpaceOnUse" x="34.733" y="178.452" width="730.533" height="442.498" id="SVGID_3_">
			<g filter="url(#Adobe_OpacityMaskFilter)">
				<image overflow="visible" width="736" height="447" xlink:href="678CEA7065FE5083.jpg"  transform="matrix(1 0 0 1 32 176)">
				</image>
			</g>
		</mask>
		<g opacity="0.32" mask="url(#SVGID_3_)">
			<g>
				<polygon points="357.493,237.443 340.464,207.947 357.493,178.452 391.552,178.452 408.581,207.947 391.552,237.443 				"/>
				<polygon points="612.269,266.947 595.239,237.452 612.269,207.956 646.327,207.956 663.356,237.452 646.327,266.947 				"/>
				<polygon points="204.628,325.948 187.599,296.452 204.628,266.956 238.687,266.956 255.716,296.452 238.687,325.948 				"/>
				<polygon points="357.493,414.444 340.464,384.948 357.493,355.452 391.552,355.452 408.581,384.948 391.552,414.444 				"/>
				<polygon points="459.403,532.444 442.374,502.949 459.403,473.453 493.462,473.453 510.491,502.949 493.462,532.444 				"/>
				<polygon points="51.763,591.444 34.733,561.949 51.763,532.453 85.821,532.453 102.851,561.949 85.821,591.444 				"/>
				<polygon points="714.179,620.949 697.149,591.453 714.179,561.957 748.237,561.957 765.267,591.453 748.237,620.949 				"/>
			</g>
		</g>
	</g>
	<g opacity="0.5" clip-path="url(#SVGID_2_)">
		
			<image overflow="visible" opacity="0.58" width="729" height="373" xlink:href="678CEA7065FE5085.png"  transform="matrix(1 0 0 1 61 218)">
		</image>
		<g>
			<g>
				<polygon fill="#B5C1C9" points="153.673,296.443 136.644,266.947 153.673,237.452 187.731,237.452 204.761,266.947 
					187.731,296.443 				"/>
				<polygon fill="#B5C1C9" points="255.583,414.444 238.554,384.948 255.583,355.452 289.642,355.452 306.671,384.948 
					289.642,414.444 				"/>
				<polygon fill="#B5C1C9" points="612.269,384.948 595.239,355.452 612.269,325.956 646.327,325.956 663.356,355.452 
					646.327,384.948 				"/>
				<polygon fill="#B5C1C9" points="102.718,443.949 85.688,414.453 102.718,384.956 136.776,384.956 153.806,414.453 
					136.776,443.949 				"/>
				<polygon fill="#B5C1C9" points="714.179,443.949 697.149,414.453 714.179,384.956 748.237,384.956 765.267,414.453 
					748.237,443.949 				"/>
				<polygon fill="#B5C1C9" points="408.448,502.949 391.419,473.453 408.448,443.957 442.507,443.957 459.536,473.453 
					442.507,502.949 				"/>
				<polygon fill="#B5C1C9" points="204.628,561.949 187.599,532.453 204.628,502.957 238.687,502.957 255.716,532.453 
					238.687,561.949 				"/>
				<polygon fill="#B5C1C9" points="612.269,561.949 595.239,532.453 612.269,502.957 646.327,502.957 663.356,532.453 
					646.327,561.949 				"/>
			</g>
			<g>
				<polygon fill="#FFFFFF" points="153.673,296.443 136.644,266.947 153.673,237.452 187.731,237.452 204.761,266.947 
					187.731,296.443 				"/>
				<polygon fill="#D6DEE4" points="255.583,414.444 238.554,384.948 255.583,355.452 289.642,355.452 306.671,384.948 
					289.642,414.444 				"/>
				<polygon fill="#FFFFFF" points="612.269,384.948 595.239,355.452 612.269,325.956 646.327,325.956 663.356,355.452 
					646.327,384.948 				"/>
				<polygon fill="#D6DEE4" points="102.718,443.949 85.688,414.453 102.718,384.956 136.776,384.956 153.806,414.453 
					136.776,443.949 				"/>
				<polygon fill="#D6DEE4" points="714.179,443.949 697.149,414.453 714.179,384.956 748.237,384.956 765.267,414.453 
					748.237,443.949 				"/>
				<polygon fill="#FFFFFF" points="408.448,502.949 391.419,473.453 408.448,443.957 442.507,443.957 459.536,473.453 
					442.507,502.949 				"/>
				<polygon fill="#FFFFFF" points="204.628,561.949 187.599,532.453 204.628,502.957 238.687,502.957 255.716,532.453 
					238.687,561.949 				"/>
				<polygon fill="#B5C1C9" points="612.269,561.949 595.239,532.453 612.269,502.957 646.327,502.957 663.356,532.453 
					646.327,561.949 				"/>
			</g>
		</g>
	</g>
</g>
</svg>
