<?xml version="1.0" encoding="utf-8"?>
<!-- Generator: Adobe Illustrator 16.2.1, SVG Export Plug-In . SVG Version: 6.00 Build 0)  -->
<!DOCTYPE svg PUBLIC "-//W3C//DTD SVG 1.1//EN" "http://www.w3.org/Graphics/SVG/1.1/DTD/svg11.dtd">
<svg version="1.1" id="Layer_1" xmlns="http://www.w3.org/2000/svg" xmlns:xlink="http://www.w3.org/1999/xlink" x="0px" y="0px"
	 width="18px" height="16px" viewBox="0 0 18 16" enable-background="new 0 0 18 16" xml:space="preserve">
<path fill="#FFFFFF" d="M7.5,0L7.5,0C11.643,0,15,2.717,15,6.069s-3.357,6.07-7.5,6.07c-0.398,0-0.788-0.025-1.169-0.074
	C4.72,13.669,2.86,13.956,1,13.999v-0.394c1.004-0.489,1.813-1.381,1.813-2.401c0-0.142-0.011-0.282-0.032-0.419
	C1.085,9.672,0,7.973,0,6.068C0,2.716,3.358-0.001,7.5,0L7.5,0z M15.562,13.604c0,0.875,0.567,1.64,1.438,2.06V16
	c-1.61-0.036-3.09-0.283-4.487-1.658c-0.33,0.041-0.668,0.063-1.013,0.063c-1.492,0-2.866-0.402-3.963-1.079
	c2.261-0.008,4.396-0.732,6.013-2.042c0.816-0.66,1.459-1.435,1.913-2.302c0.481-0.92,0.724-1.9,0.724-2.914
	c0-0.163-0.006-0.326-0.02-0.487C17.302,6.518,18,7.795,18,9.202c0,1.633-0.939,3.089-2.41,4.043
	C15.572,13.361,15.562,13.482,15.562,13.604z"/>
</svg>
