<?xml version="1.0" encoding="utf-8"?>
<!-- Generator: Adobe Illustrator 16.2.1, SVG Export Plug-In . SVG Version: 6.00 Build 0)  -->
<!DOCTYPE svg PUBLIC "-//W3C//DTD SVG 1.1//EN" "http://www.w3.org/Graphics/SVG/1.1/DTD/svg11.dtd">
<svg version="1.1" id="Layer_1" xmlns="http://www.w3.org/2000/svg" xmlns:xlink="http://www.w3.org/1999/xlink" x="0px" y="0px"
	 width="1695.305px" height="390.039px" viewBox="-15.695 0 1695.305 390.039" enable-background="new -15.695 0 1695.305 390.039"
	 xml:space="preserve">
<rect x="-25.292" y="-230.803" display="none" fill="#1F4867" width="1735" height="799"/>
<g enable-background="new    ">
	<path fill="#FFFFFF" d="M99.627,26.566h28.1c2.837,0,4.257,1.421,4.257,4.258v161.787c0,2.841-1.42,4.258-4.257,4.258h-19.798
		c-2.841,0-4.257-1.417-4.257-4.258V96.816h-1.49l-21.075,96.221c-0.712,2.555-2.271,3.832-4.683,3.832H65.992
		c-2.555,0-4.118-1.277-4.683-3.832L40.234,96.816h-1.49v95.795c0,2.841-1.42,4.258-4.257,4.258H14.901
		c-2.84,0-4.257-1.417-4.257-4.258V30.824c0-2.837,1.417-4.258,4.257-4.258h28.1c2.555,0,4.114,1.277,4.683,3.832l23.629,106.014
		l23.63-106.014C95.509,27.844,97.072,26.566,99.627,26.566z"/>
	<path fill="#FFFFFF" d="M156.678,26.566h22.14c2.268,0,3.406,1.138,3.406,3.406v163.49c0,2.272-1.138,3.406-3.406,3.406h-22.14
		c-2.271,0-3.406-1.134-3.406-3.406V29.973C153.272,27.704,154.406,26.566,156.678,26.566z"/>
	<path fill="#FFFFFF" d="M288.874,57.221v22.991c0,2.271-1.137,3.406-3.406,3.406H264.18c-2.271,0-3.406-1.135-3.406-3.406v-17.03
		c0-5.675-2.841-8.515-8.515-8.515h-11.07c-5.678,0-8.515,2.84-8.515,8.515v97.072c0,5.678,2.837,8.516,8.515,8.516h11.07
		c5.674,0,8.515-2.838,8.515-8.516v-17.03c0-2.269,1.134-3.406,3.406-3.406h21.288c2.269,0,3.406,1.138,3.406,3.406v22.991
		c0,9.936-2.627,17.529-7.876,22.777c-5.252,5.253-12.846,7.877-22.778,7.877h-23.842c-10.079,0-17.742-2.624-22.991-7.877
		c-5.252-5.248-7.876-12.842-7.876-22.777V57.221c0-9.932,2.624-17.525,7.876-22.777c5.249-5.249,12.912-7.877,22.991-7.877h23.842
		c9.932,0,17.526,2.628,22.778,7.877C286.246,39.695,288.874,47.289,288.874,57.221z"/>
	<path fill="#FFFFFF" d="M397.652,57.221v51.942c0,14.193-5.182,23.56-15.54,28.101l14.688,55.773
		c0.708,2.555-0.286,3.832-2.98,3.832h-22.14c-1.989,0-3.193-0.991-3.619-2.98l-14.263-54.071h-14.688v53.646
		c0,2.272-1.138,3.406-3.406,3.406h-22.14c-2.271,0-3.406-1.134-3.406-3.406V29.973c0-2.269,1.134-3.406,3.406-3.406h53.433
		c10.075,0,17.702,2.628,22.884,7.877C395.062,39.695,397.652,47.289,397.652,57.221z M339.111,111.718h21.075
		c5.674,0,8.515-2.837,8.515-8.515V63.182c0-5.675-2.841-8.515-8.515-8.515h-21.075V111.718z"/>
	<path fill="#FFFFFF" d="M414.682,166.215V57.221c0-9.932,2.624-17.525,7.876-22.777c5.249-5.249,12.842-7.877,22.778-7.877h23.842
		c9.932,0,17.526,2.628,22.778,7.877c5.249,5.252,7.876,12.846,7.876,22.777v108.994c0,9.936-2.627,17.529-7.876,22.777
		c-5.252,5.253-12.846,7.877-22.778,7.877h-23.842c-9.936,0-17.529-2.624-22.778-7.877
		C417.306,183.744,414.682,176.15,414.682,166.215z M451.51,169.408h12.347c5.674,0,8.515-2.838,8.515-8.516v-98.35
		c0-5.675-2.841-8.515-8.515-8.515H451.51c-5.678,0-8.515,2.84-8.515,8.515v98.35C442.995,166.57,445.832,169.408,451.51,169.408z"
		/>
	<path fill="#FFFFFF" d="M551.776,26.566h23.842c9.932,0,17.526,2.628,22.778,7.877c5.249,5.252,7.876,12.846,7.876,22.777v22.565
		c0,2.271-1.137,3.406-3.406,3.406h-22.139c-2.272,0-3.406-1.135-3.406-3.406V63.182c0-5.675-2.841-8.515-8.515-8.515h-10.218
		c-5.678,0-8.515,2.84-8.515,8.515v29.377l50.665,16.604c3.689,1.563,5.535,4.188,5.535,7.877v49.175
		c0,9.936-2.627,17.529-7.876,22.777c-5.252,5.253-12.846,7.877-22.778,7.877h-23.842c-9.936,0-17.529-2.624-22.778-7.877
		c-5.252-5.248-7.876-12.842-7.876-22.777v-22.353c0-2.269,1.134-3.406,3.406-3.406h22.14c2.268,0,3.406,1.138,3.406,3.406v16.392
		c0,5.678,2.837,8.516,8.515,8.516h10.218c5.674,0,8.515-2.838,8.515-8.516v-28.312l-50.452-16.604
		c-3.832-1.277-5.748-3.901-5.748-7.877V57.221c0-9.932,2.624-17.525,7.876-22.777C534.247,29.194,541.84,26.566,551.776,26.566z"/>
	<path fill="#FFFFFF" d="M712.498,29.973v21.288c0,2.415-1.137,3.619-3.406,3.619h-53.219v42.575h40.66
		c2.268,0,3.406,1.207,3.406,3.619v21.075c0,2.414-1.139,3.618-3.406,3.618h-40.66v43.002h53.219c2.27,0,3.406,1.138,3.406,3.405
		v21.288c0,2.272-1.137,3.406-3.406,3.406h-78.338c-2.128,0-3.193-1.134-3.193-3.406V29.973c0-2.269,1.064-3.406,3.193-3.406h78.338
		C711.361,26.566,712.498,27.704,712.498,29.973z"/>
	<path fill="#FFFFFF" d="M819.15,57.221v51.942c0,14.193-5.183,23.56-15.54,28.101l14.688,55.773
		c0.709,2.555-0.286,3.832-2.98,3.832H793.18c-1.989,0-3.193-0.991-3.619-2.98l-14.263-54.071h-14.688v53.646
		c0,2.272-1.138,3.406-3.406,3.406h-22.14c-2.271,0-3.406-1.134-3.406-3.406V29.973c0-2.269,1.135-3.406,3.406-3.406h53.433
		c10.075,0,17.702,2.628,22.885,7.877C816.56,39.695,819.15,47.289,819.15,57.221z M760.609,111.718h21.074
		c5.675,0,8.516-2.837,8.516-8.515V63.182c0-5.675-2.841-8.515-8.516-8.515h-21.074V111.718z"/>
	<path fill="#FFFFFF" d="M910.475,26.566h20.224c3.263,0,4.54,1.563,3.831,4.684l-35.976,161.787
		c-0.712,2.555-2.272,3.832-4.684,3.832h-21.288c-2.415,0-3.975-1.277-4.684-3.832L832.136,31.25
		c-0.712-3.12,0.565-4.684,3.831-4.684h20.224c2.555,0,4.114,1.277,4.684,3.832l22.353,114.103l22.564-114.103
		C906.5,27.844,908.06,26.566,910.475,26.566z"/>
	<path fill="#FFFFFF" d="M955.179,26.566h22.14c2.269,0,3.406,1.138,3.406,3.406v163.49c0,2.272-1.138,3.406-3.406,3.406h-22.14
		c-2.271,0-3.406-1.134-3.406-3.406V29.973C951.772,27.704,952.907,26.566,955.179,26.566z"/>
	<path fill="#FFFFFF" d="M1087.374,57.221v22.991c0,2.271-1.138,3.406-3.406,3.406h-21.287c-2.272,0-3.406-1.135-3.406-3.406v-17.03
		c0-5.675-2.841-8.515-8.516-8.515h-11.069c-5.678,0-8.515,2.84-8.515,8.515v97.072c0,5.678,2.837,8.516,8.515,8.516h11.069
		c5.675,0,8.516-2.838,8.516-8.516v-17.03c0-2.269,1.134-3.406,3.406-3.406h21.287c2.269,0,3.406,1.138,3.406,3.406v22.991
		c0,9.936-2.628,17.529-7.876,22.777c-5.252,5.253-12.846,7.877-22.778,7.877h-23.843c-10.078,0-17.741-2.624-22.99-7.877
		c-5.252-5.248-7.877-12.842-7.877-22.777V57.221c0-9.932,2.625-17.525,7.877-22.777c5.249-5.249,12.912-7.877,22.99-7.877h23.843
		c9.933,0,17.526,2.628,22.778,7.877C1084.746,39.695,1087.374,47.289,1087.374,57.221z"/>
	<path fill="#FFFFFF" d="M1193.599,29.973v21.288c0,2.415-1.138,3.619-3.406,3.619h-53.219v42.575h40.659
		c2.269,0,3.406,1.207,3.406,3.619v21.075c0,2.414-1.138,3.618-3.406,3.618h-40.659v43.002h53.219c2.269,0,3.406,1.138,3.406,3.405
		v21.288c0,2.272-1.138,3.406-3.406,3.406h-78.339c-2.129,0-3.193-1.134-3.193-3.406V29.973c0-2.269,1.064-3.406,3.193-3.406h78.339
		C1192.461,26.566,1193.599,27.704,1193.599,29.973z"/>
	<path fill="#FFFFFF" d="M1239.153,26.566h23.842c9.933,0,17.526,2.628,22.778,7.877c5.248,5.252,7.876,12.846,7.876,22.777v22.565
		c0,2.271-1.138,3.406-3.406,3.406h-22.139c-2.272,0-3.406-1.135-3.406-3.406V63.182c0-5.675-2.841-8.515-8.516-8.515h-10.218
		c-5.678,0-8.515,2.84-8.515,8.515v29.377l50.665,16.604c3.688,1.563,5.534,4.188,5.534,7.877v49.175
		c0,9.936-2.628,17.529-7.876,22.777c-5.252,5.253-12.846,7.877-22.778,7.877h-23.842c-9.936,0-17.529-2.624-22.778-7.877
		c-5.252-5.248-7.877-12.842-7.877-22.777v-22.353c0-2.269,1.135-3.406,3.406-3.406h22.14c2.269,0,3.406,1.138,3.406,3.406v16.392
		c0,5.678,2.837,8.516,8.515,8.516h10.218c5.675,0,8.516-2.838,8.516-8.516v-28.312l-50.452-16.604
		c-3.832-1.277-5.748-3.901-5.748-7.877V57.221c0-9.932,2.625-17.525,7.877-22.777C1221.624,29.194,1229.218,26.566,1239.153,26.566
		z"/>
	<path fill="#FFFFFF" d="M1368.157,193.463V29.973c0-2.269,1.135-3.406,3.406-3.406h51.091c9.933,0,17.526,2.628,22.778,7.877
		c5.248,5.252,7.876,12.915,7.876,22.99v108.781c0,9.936-2.628,17.529-7.876,22.777c-5.252,5.253-12.846,7.877-22.778,7.877h-51.091
		C1369.292,196.869,1368.157,195.735,1368.157,193.463z M1397.109,168.77h19.584c5.675,0,8.516-2.838,8.516-8.516V63.395
		c0-5.817-2.841-8.728-8.516-8.728h-19.584V168.77z"/>
	<path fill="#FFFFFF" d="M1570.817,196.869h-22.564c-1.847,0-2.98-0.991-3.406-2.98l-5.961-31.08h-37.893l-5.747,31.08
		c-0.426,1.989-1.563,2.98-3.406,2.98h-22.778c-2.555,0-3.479-1.204-2.768-3.619l35.338-163.703c0.426-1.985,1.63-2.98,3.619-2.98
		h29.59c1.986,0,3.193,0.995,3.619,2.98l35.338,163.703C1574.224,195.665,1573.229,196.869,1570.817,196.869z M1533.563,138.115
		l-13.624-74.295l-13.624,74.295H1533.563z"/>
	<path fill="#FFFFFF" d="M1643.623,26.566h21.287c1.561,0,2.661,0.463,3.3,1.384c0.639,0.925,0.672,2.096,0.106,3.513l-38.956,94.73
		v66.418c0,2.841-1.421,4.258-4.258,4.258h-20.437c-2.841,0-4.258-1.417-4.258-4.258v-66.418l-38.956-94.73
		c-0.569-1.417-0.532-2.588,0.106-3.513c0.639-0.921,1.736-1.384,3.3-1.384h21.287c2.412,0,4.045,1.138,4.896,3.406l23.842,61.096
		l23.843-61.096C1639.578,27.704,1641.208,26.566,1643.623,26.566z"/>
</g>
<g enable-background="new    ">
	<path fill="#E53434" d="M410.131,286.745h-0.338v85.787h-16.751V254.089h23.35l18.782,70.896h0.338v-70.896h16.582v118.443h-19.12
		L410.131,286.745z"/>
	<path fill="#E53434" d="M484.075,304.004h25.55v16.921h-25.55v34.687h32.149v16.921h-50.762V254.089h50.762v16.921h-32.149V304.004
		z"/>
	<path fill="#E53434" d="M569.186,309.419h-0.338l-6.599,63.113h-25.55L523.5,254.089h18.105l9.814,93.401h0.338l8.798-93.401
		h17.936l9.137,94.078h0.338l9.476-94.078h16.244l-13.198,118.443h-24.704L569.186,309.419z"/>
	<path fill="#E53434" d="M666.65,333.276l-23.52-79.188h19.458l14.044,53.977h0.338l14.044-53.977h17.767l-23.52,79.188v39.256
		H666.65V333.276z"/>
	<path fill="#E53434" d="M712.167,282.516c0-18.951,9.983-29.78,28.257-29.78c18.274,0,28.257,10.829,28.257,29.78v61.59
		c0,18.951-9.983,29.78-28.257,29.78c-18.274,0-28.257-10.829-28.257-29.78V282.516z M730.78,345.29
		c0,8.461,3.723,11.676,9.645,11.676c5.922,0,9.645-3.215,9.645-11.676v-63.959c0-8.46-3.722-11.676-9.645-11.676
		c-5.922,0-9.645,3.216-9.645,11.676V345.29z"/>
	<path fill="#E53434" d="M819.614,372.532c-1.015-3.046-1.692-4.907-1.692-14.552v-18.612c0-10.998-3.723-15.06-12.183-15.06h-6.43
		v48.224h-18.613V254.089h28.088c19.29,0,27.581,8.968,27.581,27.242v9.306c0,12.184-3.892,19.967-12.183,23.858v0.338
		c9.306,3.893,12.352,12.69,12.352,25.043v18.273c0,5.753,0.169,9.983,2.03,14.383H819.614z M799.31,271.01v36.379h7.276
		c6.937,0,11.167-3.046,11.167-12.521v-11.675c0-8.461-2.876-12.183-9.476-12.183H799.31z"/>
	<path fill="#E53434" d="M873.084,325.324l-5.752,10.829v36.379h-18.613V254.089h18.613v51.27h0.338l24.027-51.27h18.612
		l-25.889,52.792l25.889,65.651h-19.12L873.084,325.324z"/>
</g>
<rect x="10.708" y="187.197" opacity="0.4" fill="#FFFFFF" enable-background="new    " width="28" height="149"/>
<rect x="103.708" y="187.197" opacity="0.3" fill="#FFFFFF" enable-background="new    " width="28" height="70.75"/>
<rect x="153.708" y="187.197" opacity="0.3" fill="#FFFFFF" enable-background="new    " width="28" height="70.75"/>
<rect x="310.708" y="187.197" opacity="0.4" fill="#FFFFFF" enable-background="new    " width="28" height="149"/>
<circle fill="#FFFFFF" stroke="#FFFFFF" stroke-width="10" stroke-miterlimit="10" cx="24.708" cy="351.532" r="21"/>
<circle fill="#FFFFFF" stroke="#FFFFFF" stroke-width="10" stroke-miterlimit="10" cx="324.708" cy="351.532" r="21"/>
<rect x="952.708" y="187.197" opacity="0.4" fill="#FFFFFF" enable-background="new    " width="28" height="149"/>
<circle fill="#FFFFFF" stroke="#FFFFFF" stroke-width="10" stroke-miterlimit="10" cx="966.708" cy="351.532" r="21"/>
<rect x="1600.708" y="187.197" opacity="0.4" fill="#FFFFFF" enable-background="new    " width="28" height="95.324"/>
<path opacity="0.3" fill="#FFFFFF" enable-background="new    " d="M142.708,274.406l14,20.947v59.594h-28v-59.594L142.708,274.406z
	 M131.708,257.947l25,37.406h-28l-25-37.406H131.708z M153.708,257.947l-25,37.406h28l25-37.406H153.708z"/>
<circle fill="#FFFFFF" stroke="#FFFFFF" stroke-width="10" stroke-miterlimit="10" cx="142.708" cy="351.532" r="21"/>
<rect x="980.708" y="254.521" opacity="0.4" fill="#FFFFFF" enable-background="new    " width="620" height="28"/>
</svg>
