<?xml version="1.0" encoding="utf-8"?>
<!-- Generator: Adobe Illustrator 16.2.1, SVG Export Plug-In . SVG Version: 6.00 Build 0)  -->
<!DOCTYPE svg PUBLIC "-//W3C//DTD SVG 1.1//EN" "http://www.w3.org/Graphics/SVG/1.1/DTD/svg11.dtd">
<svg version="1.1" id="Layer_1" xmlns="http://www.w3.org/2000/svg" xmlns:xlink="http://www.w3.org/1999/xlink" x="0px" y="0px"
	 width="100.093px" height="100.091px" viewBox="0 0 100.093 100.091" enable-background="new 0 0 100.093 100.091"
	 xml:space="preserve">
<path fill="#FFFFFF" d="M50.046,100.091C22.451,100.091,0,77.641,0,50.046C0,22.451,22.451,0,50.046,0
	c27.596,0,50.047,22.451,50.047,50.046C100.093,77.641,77.642,100.091,50.046,100.091 M50.046,4.753
	c-24.975,0-45.293,20.318-45.293,45.293c0,24.975,20.318,45.293,45.293,45.293c24.975,0,45.293-20.318,45.293-45.293
	C95.339,25.071,75.021,4.753,50.046,4.753"/>
<polygon fill="#FFFFFF" points="77.535,60.371 71.25,64 64.965,60.371 64.965,53.113 71.25,49.485 77.535,53.113 "/>
<polygon fill="#FFFFFF" points="56.764,48.551 50.479,52.179 44.196,48.551 44.196,41.294 50.479,37.666 56.764,41.294 "/>
<polygon fill="#FFFFFF" points="43.056,48.551 36.771,52.179 30.487,48.551 30.487,41.294 36.771,37.666 43.056,41.294 "/>
<polygon fill="#FFFFFF" points="36.173,36.831 29.888,40.459 23.604,36.831 23.604,29.574 29.888,25.946 36.173,29.574 "/>
<polygon fill="#FFFFFF" points="77.25,36.68 70.964,40.309 64.68,36.68 64.68,29.423 70.964,25.795 77.25,29.423 "/>
<polygon fill="#FFFFFF" points="70.473,48.551 64.188,52.179 57.904,48.551 57.904,41.294 64.188,37.666 70.473,41.294 "/>
<polygon fill="#FFFFFF" points="70.487,72.669 64.202,76.298 57.917,72.669 57.917,65.413 64.202,61.785 70.487,65.413 "/>
<polygon fill="#FFFFFF" points="84.674,72.669 78.389,76.298 72.105,72.669 72.105,65.413 78.389,61.785 84.674,65.413 "/>
<polygon fill="#FFFFFF" points="42.584,72.669 36.299,76.298 30.015,72.669 30.015,65.413 36.299,61.785 42.584,65.413 "/>
<polygon fill="#FFFFFF" points="28.397,72.669 22.112,76.298 15.828,72.669 15.828,65.413 22.112,61.785 28.397,65.413 "/>
<polygon fill="#FFFFFF" points="35.928,60.609 29.643,64.236 23.359,60.609 23.359,53.351 29.643,49.724 35.928,53.351 "/>
</svg>
