<?xml version="1.0" encoding="utf-8"?>
<!-- Generator: Adobe Illustrator 16.2.1, SVG Export Plug-In . SVG Version: 6.00 Build 0)  -->
<!DOCTYPE svg PUBLIC "-//W3C//DTD SVG 1.1//EN" "http://www.w3.org/Graphics/SVG/1.1/DTD/svg11.dtd">
<svg version="1.1" id="Layer_1" xmlns="http://www.w3.org/2000/svg" xmlns:xlink="http://www.w3.org/1999/xlink" x="0px" y="0px"
	 width="1695.305px" height="223.108px" viewBox="0 0 1695.305 223.108" enable-background="new 0 0 1695.305 223.108"
	 xml:space="preserve">
<rect x="-25.292" y="-230.803" display="none" fill="#1F4867" width="1735" height="799"/>
<g enable-background="new    ">
	<path fill="#FFFFFF" d="M99.627,26.566h28.1c2.837,0,4.257,1.421,4.257,4.258v161.787c0,2.841-1.42,4.258-4.257,4.258h-19.798
		c-2.841,0-4.257-1.417-4.257-4.258V96.816h-1.49l-21.075,96.221c-0.712,2.555-2.271,3.832-4.683,3.832H65.992
		c-2.555,0-4.118-1.277-4.683-3.832L40.234,96.816h-1.49v95.795c0,2.841-1.42,4.258-4.257,4.258H14.901
		c-2.84,0-4.257-1.417-4.257-4.258V30.824c0-2.837,1.417-4.258,4.257-4.258h28.1c2.555,0,4.114,1.277,4.683,3.832l23.629,106.014
		l23.63-106.014C95.509,27.844,97.072,26.566,99.627,26.566z"/>
	<path fill="#FFFFFF" d="M156.678,26.566h22.14c2.268,0,3.406,1.138,3.406,3.406v163.49c0,2.272-1.138,3.406-3.406,3.406h-22.14
		c-2.271,0-3.406-1.134-3.406-3.406V29.973C153.272,27.704,154.406,26.566,156.678,26.566z"/>
	<path fill="#FFFFFF" d="M288.874,57.221v22.991c0,2.271-1.137,3.406-3.406,3.406H264.18c-2.271,0-3.406-1.135-3.406-3.406v-17.03
		c0-5.675-2.841-8.515-8.515-8.515h-11.07c-5.678,0-8.515,2.84-8.515,8.515v97.072c0,5.678,2.837,8.516,8.515,8.516h11.07
		c5.674,0,8.515-2.838,8.515-8.516v-17.03c0-2.269,1.134-3.406,3.406-3.406h21.288c2.269,0,3.406,1.138,3.406,3.406v22.991
		c0,9.936-2.627,17.529-7.876,22.777c-5.252,5.253-12.846,7.877-22.778,7.877h-23.842c-10.079,0-17.742-2.624-22.991-7.877
		c-5.252-5.248-7.876-12.842-7.876-22.777V57.221c0-9.932,2.624-17.525,7.876-22.777c5.249-5.249,12.912-7.877,22.991-7.877h23.842
		c9.932,0,17.526,2.628,22.778,7.877C286.246,39.695,288.874,47.289,288.874,57.221z"/>
	<path fill="#FFFFFF" d="M397.652,57.221v51.942c0,14.193-5.182,23.56-15.54,28.101l14.688,55.773
		c0.708,2.555-0.286,3.832-2.98,3.832h-22.14c-1.989,0-3.193-0.991-3.619-2.98l-14.263-54.071H339.11v53.646
		c0,2.272-1.138,3.406-3.406,3.406h-22.14c-2.271,0-3.406-1.134-3.406-3.406V29.973c0-2.269,1.134-3.406,3.406-3.406h53.433
		c10.075,0,17.702,2.628,22.884,7.877C395.062,39.695,397.652,47.289,397.652,57.221z M339.111,111.718h21.075
		c5.674,0,8.515-2.837,8.515-8.515V63.182c0-5.675-2.841-8.515-8.515-8.515h-21.075V111.718z"/>
	<path fill="#FFFFFF" d="M414.682,166.215V57.221c0-9.932,2.624-17.525,7.875-22.777c5.249-5.249,12.843-7.877,22.778-7.877h23.842
		c9.933,0,17.526,2.628,22.778,7.877c5.249,5.252,7.876,12.846,7.876,22.777v108.994c0,9.936-2.627,17.529-7.876,22.777
		c-5.252,5.253-12.846,7.877-22.778,7.877h-23.842c-9.936,0-17.529-2.624-22.778-7.877
		C417.306,183.744,414.682,176.15,414.682,166.215z M451.51,169.408h12.348c5.674,0,8.515-2.838,8.515-8.516v-98.35
		c0-5.675-2.841-8.515-8.515-8.515H451.51c-5.678,0-8.515,2.84-8.515,8.515v98.35C442.995,166.57,445.832,169.408,451.51,169.408z"
		/>
	<path fill="#FFFFFF" d="M551.776,26.566h23.842c9.932,0,17.525,2.628,22.778,7.877c5.248,5.252,7.875,12.846,7.875,22.777v22.565
		c0,2.271-1.137,3.406-3.405,3.406h-22.14c-2.271,0-3.405-1.135-3.405-3.406V63.182c0-5.675-2.841-8.515-8.516-8.515h-10.218
		c-5.678,0-8.515,2.84-8.515,8.515v29.377l50.665,16.604c3.688,1.563,5.534,4.188,5.534,7.877v49.175
		c0,9.936-2.627,17.529-7.876,22.777c-5.252,5.253-12.846,7.877-22.777,7.877h-23.842c-9.937,0-17.529-2.624-22.778-7.877
		c-5.252-5.248-7.876-12.842-7.876-22.777v-22.353c0-2.269,1.134-3.406,3.406-3.406h22.14c2.268,0,3.406,1.138,3.406,3.406v16.392
		c0,5.678,2.837,8.516,8.515,8.516h10.218c5.675,0,8.516-2.838,8.516-8.516v-28.312l-50.452-16.604
		c-3.832-1.277-5.748-3.901-5.748-7.877v-50.24c0-9.932,2.624-17.525,7.876-22.777C534.247,29.194,541.84,26.566,551.776,26.566z"/>
	<path fill="#FFFFFF" d="M712.498,29.973v21.288c0,2.415-1.137,3.619-3.406,3.619h-53.219v42.575h40.66
		c2.268,0,3.406,1.207,3.406,3.619v21.075c0,2.414-1.14,3.618-3.406,3.618h-40.66v43.002h53.219c2.271,0,3.406,1.138,3.406,3.405
		v21.288c0,2.272-1.137,3.406-3.406,3.406h-78.338c-2.128,0-3.193-1.134-3.193-3.406V29.973c0-2.269,1.064-3.406,3.193-3.406h78.338
		C711.361,26.566,712.498,27.704,712.498,29.973z"/>
	<path fill="#FFFFFF" d="M819.15,57.221v51.942c0,14.193-5.184,23.56-15.54,28.101l14.688,55.773
		c0.709,2.555-0.286,3.832-2.979,3.832H793.18c-1.988,0-3.192-0.991-3.619-2.98l-14.263-54.071H760.61v53.646
		c0,2.272-1.139,3.406-3.406,3.406h-22.14c-2.271,0-3.406-1.134-3.406-3.406V29.973c0-2.269,1.135-3.406,3.406-3.406h53.433
		c10.075,0,17.702,2.628,22.885,7.877C816.561,39.695,819.15,47.289,819.15,57.221z M760.609,111.718h21.073
		c5.676,0,8.517-2.837,8.517-8.515V63.182c0-5.675-2.841-8.515-8.517-8.515h-21.073V111.718z"/>
	<path fill="#FFFFFF" d="M910.475,26.566h20.225c3.263,0,4.54,1.563,3.831,4.684l-35.977,161.787
		c-0.712,2.555-2.271,3.832-4.684,3.832h-21.288c-2.415,0-3.975-1.277-4.684-3.832L832.136,31.25
		c-0.712-3.12,0.565-4.684,3.831-4.684h20.225c2.555,0,4.113,1.277,4.684,3.832l22.354,114.103l22.563-114.103
		C906.5,27.844,908.061,26.566,910.475,26.566z"/>
	<path fill="#FFFFFF" d="M955.179,26.566h22.141c2.269,0,3.405,1.138,3.405,3.406v163.49c0,2.272-1.138,3.406-3.405,3.406h-22.141
		c-2.271,0-3.405-1.134-3.405-3.406V29.973C951.771,27.704,952.907,26.566,955.179,26.566z"/>
	<path fill="#FFFFFF" d="M1087.374,57.221v22.991c0,2.271-1.138,3.406-3.406,3.406h-21.287c-2.271,0-3.405-1.135-3.405-3.406v-17.03
		c0-5.675-2.842-8.515-8.517-8.515h-11.068c-5.679,0-8.516,2.84-8.516,8.515v97.072c0,5.678,2.837,8.516,8.516,8.516h11.068
		c5.675,0,8.517-2.838,8.517-8.516v-17.03c0-2.269,1.134-3.406,3.405-3.406h21.287c2.27,0,3.406,1.138,3.406,3.406v22.991
		c0,9.936-2.628,17.529-7.876,22.777c-5.252,5.253-12.846,7.877-22.778,7.877h-23.843c-10.078,0-17.741-2.624-22.99-7.877
		c-5.252-5.248-7.877-12.842-7.877-22.777V57.221c0-9.932,2.625-17.525,7.877-22.777c5.249-5.249,12.912-7.877,22.99-7.877h23.843
		c9.934,0,17.526,2.628,22.778,7.877C1084.746,39.695,1087.374,47.289,1087.374,57.221z"/>
	<path fill="#FFFFFF" d="M1193.599,29.973v21.288c0,2.415-1.138,3.619-3.405,3.619h-53.22v42.575h40.659
		c2.27,0,3.406,1.207,3.406,3.619v21.075c0,2.414-1.138,3.618-3.406,3.618h-40.659v43.002h53.22c2.269,0,3.405,1.138,3.405,3.405
		v21.288c0,2.272-1.138,3.406-3.405,3.406h-78.34c-2.129,0-3.192-1.134-3.192-3.406V29.973c0-2.269,1.063-3.406,3.192-3.406h78.34
		C1192.461,26.566,1193.599,27.704,1193.599,29.973z"/>
	<path fill="#FFFFFF" d="M1239.153,26.566h23.842c9.933,0,17.526,2.628,22.778,7.877c5.248,5.252,7.875,12.846,7.875,22.777v22.565
		c0,2.271-1.138,3.406-3.405,3.406h-22.14c-2.271,0-3.405-1.135-3.405-3.406V63.182c0-5.675-2.841-8.515-8.517-8.515h-10.218
		c-5.678,0-8.515,2.84-8.515,8.515v29.377l50.665,16.604c3.688,1.563,5.534,4.188,5.534,7.877v49.175
		c0,9.936-2.629,17.529-7.877,22.777c-5.252,5.253-12.846,7.877-22.777,7.877h-23.842c-9.937,0-17.529-2.624-22.778-7.877
		c-5.252-5.248-7.877-12.842-7.877-22.777v-22.353c0-2.269,1.135-3.406,3.406-3.406h22.14c2.27,0,3.406,1.138,3.406,3.406v16.392
		c0,5.678,2.837,8.516,8.515,8.516h10.218c5.676,0,8.517-2.838,8.517-8.516v-28.312l-50.452-16.604
		c-3.832-1.277-5.748-3.901-5.748-7.877v-50.24c0-9.932,2.625-17.525,7.877-22.777C1221.624,29.194,1229.218,26.566,1239.153,26.566
		z"/>
	<path fill="#FFFFFF" d="M1368.157,193.463V29.973c0-2.269,1.135-3.406,3.405-3.406h51.092c9.933,0,17.525,2.628,22.777,7.877
		c5.248,5.252,7.876,12.915,7.876,22.99v108.781c0,9.936-2.628,17.529-7.876,22.777c-5.252,5.253-12.846,7.877-22.777,7.877h-51.092
		C1369.292,196.869,1368.157,195.734,1368.157,193.463z M1397.109,168.77h19.584c5.675,0,8.516-2.838,8.516-8.516V63.395
		c0-5.817-2.841-8.728-8.516-8.728h-19.584V168.77z"/>
	<path fill="#FFFFFF" d="M1570.817,196.869h-22.564c-1.847,0-2.979-0.991-3.406-2.98l-5.961-31.08h-37.893l-5.747,31.08
		c-0.426,1.989-1.562,2.98-3.406,2.98h-22.777c-2.556,0-3.479-1.204-2.769-3.619l35.338-163.703c0.427-1.985,1.63-2.98,3.619-2.98
		h29.59c1.986,0,3.193,0.995,3.619,2.98l35.338,163.703C1574.224,195.665,1573.229,196.869,1570.817,196.869z M1533.562,138.115
		l-13.623-74.295l-13.625,74.295H1533.562z"/>
	<path fill="#FFFFFF" d="M1643.623,26.566h21.287c1.561,0,2.661,0.463,3.3,1.384c0.64,0.925,0.672,2.096,0.106,3.513l-38.956,94.73
		v66.418c0,2.841-1.421,4.258-4.259,4.258h-20.437c-2.841,0-4.258-1.417-4.258-4.258v-66.418l-38.956-94.73
		c-0.569-1.417-0.532-2.588,0.105-3.513c0.639-0.921,1.736-1.384,3.3-1.384h21.287c2.412,0,4.045,1.138,4.896,3.406l23.842,61.096
		l23.843-61.096C1639.578,27.704,1641.208,26.566,1643.623,26.566z"/>
</g>
</svg>
