<?xml version="1.0" encoding="utf-8"?>
<!-- Generator: Adobe Illustrator 16.2.1, SVG Export Plug-In . SVG Version: 6.00 Build 0)  -->
<!DOCTYPE svg PUBLIC "-//W3C//DTD SVG 1.1//EN" "http://www.w3.org/Graphics/SVG/1.1/DTD/svg11.dtd">
<svg version="1.1" id="Layer_1" xmlns="http://www.w3.org/2000/svg" xmlns:xlink="http://www.w3.org/1999/xlink" x="0px" y="0px"
	 width="706.085px" height="178.384px" viewBox="0 0 706.085 178.384" enable-background="new 0 0 706.085 178.384"
	 xml:space="preserve">
<g id="layer1">
	<path id="path157" fill="#FFFFFF" d="M0,0v3.284c5.713,1.15,14.022,2.597,13.453,15.173L10.011,85.25
		c-0.763,14.277-4.807,19.51-14.703,20.647v3.285h35.039v-3.285c-10.663-1.9-13.709-5.62-13.141-19.708l3.129-67.106l35.038,89.318
		h4.381l34.257-89.318l3.284,71.483c0.576,11.057-2.446,14.383-10.637,15.331v3.285h39.419v-3.285
		c-9.718-0.948-13.504-5.484-14.079-18.615l-3.285-68.356c-0.376-9.905,3.791-14.109,12.357-14.86V0.625H93.854L61.631,84.624
		L28.782,0H0z M195.06,0v3.284c11.814,0.951,12.514,3.41,12.514,31.599v37.698c0,30.478-1.264,32.368-12.514,33.316v3.285h39.106
		v-3.285c-12.389-1.7-12.358-2.604-12.358-35.35v-6.103l5.162-5.787c12.952,15.999,26.874,33.577,41.921,50.524h25.966h35.977
		v-3.285c-10.667-0.75-10.949-0.555-10.949-24.559v-40.2h-25.497v3.285c11.038,0.387,12.358,0.971,12.358,20.021v16.738
		c0,23.938-0.247,24.166-11.889,24.714c-6.095-0.571-12.195-2.275-31.44-24.559c-7.421-8.768-19.673-23.513-26.906-32.848
		l23.308-25.967c11.424-12.576,17.639-18.852,28.312-19.24V0h-36.603v3.284c4.761,0.951,6.57,2.68,6.57,6.101
		c0,2.292-0.463,6.307-7.509,13.921L221.808,55.06v-20.49c0-27.988,1.302-29.765,12.358-31.285V0H195.06z M312.69,4.379
		c-4.954,0-8.604,3.817-8.604,8.761c0,4.955,3.649,8.759,8.604,8.759s8.759-3.805,8.759-8.759
		C321.449,8.196,317.644,4.379,312.69,4.379z M450.03,39.731c-14.091,0-22.214,8.771-22.214,19.24
		c0,22.861,39.107,18.249,39.107,36.916c0,6.278-5.906,10.01-15.798,10.01c-9.72,0-17.989-5.169-20.648-17.363h-4.068
		c0,4.964,0.772,14.109,1.722,15.645c2.671,4.378,13.571,6.725,22.525,6.725c16.186,0,26.121-9.41,26.121-20.646
		c0-25.146-38.793-21.188-38.793-37.387c0-5.714,5.137-8.603,11.42-8.603c12.759,0,18.415,11.794,19.553,15.798h2.973
		c0-9.905-1.107-16.134-1.877-16.894C469.29,42.409,459.55,39.731,450.03,39.731z M521.672,39.731
		c-19.817,0-33.163,15.787-33.163,37.697c0,17.131,8.765,33.631,32.379,33.631c9.706,0,21.375-3.917,27.846-10.949l-1.565-3.285
		c-6.282,3.81-13.191,5.631-19.867,5.631c-18.857,0-26.69-16.947-26.121-32.379h47.554
		C549.495,54.458,541.282,39.731,521.672,39.731z M165.809,40.2c-20.386,0-35.666,18.29-35.666,38.479
		c0,15.999,8.955,32.38,32.381,32.38c9.704,0,21.372-3.91,27.843-10.949l-1.564-3.285c-6.282,3.806-13.203,5.631-19.867,5.631
		c-18.858,0-25.966-15.932-25.966-32.692c0-7.802,1.884-13.46,5.319-16.894c3.229-3.241,7.795-4.379,12.357-4.379
		c6.664,0,14.339,2.608,19.866,9.855l1.25-0.157c2.096-2.659,4.181-8.032,4.381-12.045C181.382,42.34,174.187,40.2,165.809,40.2z
		 M386.521,40.2c-8.766,0-17.982,4.172-25.027,13.14V41.139h-25.497v3.285c11.044,0.384,12.357,0.971,12.357,20.021v16.738
		c0,24.183-0.051,24.143-12.044,24.714v3.285h36.29v-3.285c-10.68-0.75-11.106-0.562-11.106-24.559V62.883
		c0-6.297,8.641-14.079,18.927-14.079c8.374,0,15.018,3.64,15.018,20.022v13.608c0,22.675-0.763,22.892-10.481,23.463v3.285h35.665
		v-3.285c-11.993-0.571-12.044-0.788-12.044-23.463V67.261C408.578,46.688,397.377,40.2,386.521,40.2z M552.019,42.077v3.284
		c7.8,0.385,8.45,1.482,18.926,24.716l17.831,39.419c-6.095,15.618-15.635,24.09-34.883,28.469
		c0.966,3.243,4.526,8.917,6.414,10.637c25.343-10.285,30.315-27.069,39.263-52.402l13.453-38.479
		c3.039-8.767,7.92-12.358,12.669-12.358v-3.284h-24.559v3.284c5.913,0.385,9.016,3.661,6.728,10.324l-13.139,38.637L582.05,64.445
		c-3.417-8.185-4.692-11.379-4.692-14.234c0-2.67,1.47-4.266,6.414-4.85v-3.284H552.019z M519.013,45.361
		c10.654,0,17.175,6.984,17.361,19.554h-35.039C502.474,52.346,508.156,45.361,519.013,45.361z"/>
	<rect id="rect3708" x="-38.167" y="-25.138" fill="none" width="1441.595" height="180.199"/>
</g>
<text transform="matrix(1 0 0 1 -4.6914 178.3838)" fill="#FFFFFF" font-family="'Petyka-RetroComputer___SHORT'" font-size="56.296">Digital Labs</text>
<path fill="#FFFFFF" d="M672.068,39.715c-14.091,0-22.214,8.771-22.214,19.24c0,22.861,39.107,18.249,39.107,36.916
	c0,6.278-5.906,10.01-15.798,10.01c-9.72,0-17.989-5.169-20.648-17.363h-4.068c0,4.964,0.772,14.109,1.722,15.645
	c2.671,4.378,13.571,6.725,22.525,6.725c16.186,0,26.121-9.41,26.121-20.646c0-25.146-38.793-21.188-38.793-37.387
	c0-5.714,5.137-8.603,11.42-8.603c12.759,0,18.415,11.794,19.553,15.798h2.973c0-9.905-1.107-16.134-1.877-16.894
	C691.328,42.393,681.588,39.715,672.068,39.715z"/>
<text transform="matrix(1 0 0 1 631.5884 92.1919)" fill="#FFFFFF" font-family="'MyriadPro-Regular'" font-size="100">‘</text>
</svg>
