<?xml version="1.0" standalone="no"?>
<!DOCTYPE svg PUBLIC "-//W3C//DTD SVG 1.1//EN" "http://www.w3.org/Graphics/SVG/1.1/DTD/svg11.dtd">
<!--Generator: Xara Designer (www.xara.com), SVG filter version: 4.0.0.1-->
<svg stroke-width="0.501" stroke-linejoin="bevel" fill-rule="evenodd" xmlns:xlink="http://www.w3.org/1999/xlink" xmlns="http://www.w3.org/2000/svg" version="1.1" overflow="visible" width="750pt" height="82.5pt" viewBox="0 0 750 82.5">
 <defs>
  <marker id="DefaultArrow2" markerUnits="strokeWidth" viewBox="0 0 1 1" markerWidth="1" markerHeight="1" overflow="visible" orient="auto">
   <!-- REF_ARROW_STRAIGHT (-2) -->
   <g transform="scale(0.0092592592)">
    <!-- 1/108 -->
    <path d="M -9 54 L -9 -54 L 117 0 z"/>
   </g>
  </marker>
  <marker id="DefaultArrow3" markerUnits="strokeWidth" viewBox="0 0 1 1" markerWidth="1" markerHeight="1" overflow="visible" orient="auto">
   <!-- REF_ARROW_ANGLED -->
   <g transform="scale(0.0092592592)">
    <path d="M -27 54 L -9 0 L -27 -54 L 135 0 z"/>
   </g>
  </marker>
  <marker id="DefaultArrow4" markerUnits="strokeWidth" viewBox="0 0 1 1" markerWidth="1" markerHeight="1" overflow="visible" orient="auto">
   <!-- REF_ARROW_ROUNDED -->
   <g transform="scale(0.0092592592)">
    <path d="M -9,0 L -9,-45 C -9,-51.708 2.808,-56.580 9,-54 L 117,-9 C 120.916,-7.369 126.000,-4.242 126,0 C 126,4.242 120.916,7.369 117,9 L 9,54 C 2.808,56.580 -9,51.708 -9,45 z"/>
   </g>
  </marker>
  <marker id="DefaultArrow5" markerUnits="strokeWidth" viewBox="0 0 1 1" markerWidth="1" markerHeight="1" overflow="visible" orient="auto">
   <!-- REF_ARROW_SPOT -->
   <g transform="scale(0.0092592592)">
    <path d="M -54, 0 C -54,29.807 -29.807,54 0,54 C 29.807,54 54,29.807 54,0 C 54,-29.807 29.807,-54 0,-54 C -29.807,-54 -54,-29.807 -54,0 z"/>
   </g>
  </marker>
  <marker id="DefaultArrow6" markerUnits="strokeWidth" viewBox="0 0 1 1" markerWidth="1" markerHeight="1" overflow="visible" orient="auto">
   <!-- REF_ARROW_DIAMOND -->
   <g transform="scale(0.0092592592)">
    <path d="M -63,0 L 0,63 L 63,0 L 0,-63 z"/>
   </g>
  </marker>
  <marker id="DefaultArrow7" markerUnits="strokeWidth" viewBox="0 0 1 1" markerWidth="1" markerHeight="1" overflow="visible" orient="auto">
   <!-- REF_ARROW_FEATHER -->
   <g transform="scale(0.0092592592)">
    <path d="M 18,-54 L 108,-54 L 63,0 L 108,54 L 18, 54 L -36,0 z"/>
   </g>
  </marker>
  <marker id="DefaultArrow8" markerUnits="strokeWidth" viewBox="0 0 1 1" markerWidth="1" markerHeight="1" overflow="visible" orient="auto">
   <!-- REF_ARROW_FEATHER2 -->
   <g transform="scale(0.0092592592)">
    <path d="M -36,0 L 18,-54 L 54,-54 L 18,-18 L 27,-18 L 63,-54 L 99,-54 L 63,-18 L 72,-18 L 108,-54 L 144,-54 L 90,0 L 144,54 L 108,54 L 72,18 L 63,18 L 99,54 L 63,54 L 27,18 L 18,18 L 54,54 L 18,54 z"/>
   </g>
  </marker>
  <marker id="DefaultArrow9" markerUnits="strokeWidth" viewBox="0 0 1 1" markerWidth="1" markerHeight="1" overflow="visible" orient="auto">
   <!-- REF_ARROW_HOLLOWDIAMOND -->
   <g transform="scale(0.0092592592)">
    <path d="M 0,45 L -45,0 L 0, -45 L 45, 0 z M 0, 63 L-63, 0 L 0, -63 L 63, 0 z"/>
   </g>
  </marker>
  <filter id="StainedFilter">
   <feBlend mode="multiply" in2="BackgroundImage" in="SourceGraphic" result="blend"/>
   <feComposite in="blend" in2="SourceAlpha" operator="in" result="comp"/>
  </filter>
  <filter id="BleachFilter">
   <feBlend mode="screen" in2="BackgroundImage" in="SourceGraphic" result="blend"/>
   <feComposite in="blend" in2="SourceAlpha" operator="in" result="comp"/>
  </filter>
  <filter id="InvertTransparencyBitmapFilter">
   <feComponentTransfer>
    <feFuncR type="gamma" amplitude="1.055" exponent=".416666666" offset="-0.055"/>
    <feFuncG type="gamma" amplitude="1.055" exponent=".416666666" offset="-0.055"/>
    <feFuncB type="gamma" amplitude="1.055" exponent=".416666666" offset="-0.055"/>
   </feComponentTransfer>
   <feComponentTransfer>
    <feFuncR type="linear" slope="-1" intercept="1"/>
    <feFuncG type="linear" slope="-1" intercept="1"/>
    <feFuncB type="linear" slope="-1" intercept="1"/>
    <feFuncA type="linear" slope="1" intercept="0"/>
   </feComponentTransfer>
   <feComponentTransfer>
    <feFuncR type="gamma" amplitude="1" exponent="2.4" offset="0"/>
    <feFuncG type="gamma" amplitude="1" exponent="2.4" offset="0"/>
    <feFuncB type="gamma" amplitude="1" exponent="2.4" offset="0"/>
   </feComponentTransfer>
  </filter>
 </defs>
 <g id="Document" fill="none" stroke="black" font-family="Times New Roman" font-size="16" transform="scale(1 -1)">
  <g id="Spread" transform="translate(0 -82.5)">
   <g id="Layer 1">
    <path d="M 0,82.5 L 750,82.5 L 750,0 L 0,0 L 0,82.5" stroke="none"/>
    <path d="M 304.674,5.921 C 309.922,7.175 313.985,8.988 316.86,11.361 C 319.735,13.74 322.043,17.109 323.793,21.482 L 314.043,43.04 C 311.174,49.411 309.239,53.224 308.237,54.478 C 307.362,55.726 305.858,56.413 303.735,56.536 L 303.735,58.226 L 320.983,58.226 L 320.983,56.536 C 318.604,56.29 317.42,55.415 317.42,53.911 C 317.42,52.792 318.295,50.169 320.043,46.042 L 326.983,29.73 L 334.295,50.915 C 334.797,52.663 334.737,54.04 334.108,55.036 C 333.362,55.911 332.172,56.413 330.545,56.536 L 330.545,58.226 L 343.858,58.226 L 343.858,56.536 C 340.86,56.54 338.61,54.29 337.112,49.79 L 329.608,28.792 C 326.481,20.042 324.043,14.234 322.295,11.361 C 319.17,6.365 314.487,2.611 308.237,0.109 C 306.61,1.609 305.42,3.548 304.674,5.921 Z M 710.8,5.921 C 715.925,7.175 719.983,8.988 722.987,11.361 C 725.862,13.74 728.177,17.109 729.925,21.482 L 720.177,43.04 C 717.302,49.411 715.36,53.224 714.362,54.478 C 713.36,55.726 711.862,56.413 709.86,56.536 L 709.86,58.226 L 727.114,58.226 L 727.114,56.536 C 724.735,56.29 723.552,55.415 723.552,53.911 C 723.552,52.792 724.427,50.169 726.177,46.042 L 733.114,29.73 L 740.239,50.915 C 740.864,52.663 740.8,54.04 740.048,55.036 C 739.425,55.911 738.3,56.413 736.677,56.536 L 736.677,58.226 L 749.989,58.226 L 749.989,56.536 C 746.987,56.54 744.673,54.29 743.052,49.79 L 735.739,28.792 C 732.614,20.042 730.177,14.234 728.427,11.361 C 725.173,6.365 720.485,2.611 714.362,0.109 C 712.735,1.609 711.552,3.548 710.8,5.921 Z M 582.735,2.738 L 582.735,4.423 C 584.489,4.546 585.737,4.732 586.483,4.984 C 587.358,5.363 587.983,5.986 588.362,6.861 C 588.735,7.986 588.92,12.048 588.92,19.044 L 588.92,44.351 C 588.92,50.228 588.547,53.853 587.795,55.224 C 587.422,55.976 586.799,56.478 585.924,56.728 C 585.299,56.855 584.174,56.913 582.547,56.913 L 582.547,58.786 L 596.047,58.786 L 596.047,53.353 C 599.552,57.351 603.86,59.351 608.985,59.351 C 613.733,59.351 617.674,57.538 620.8,53.911 C 623.925,50.292 625.487,45.79 625.487,40.415 C 625.487,34.667 623.86,29.982 620.612,26.355 C 617.237,22.607 612.799,20.734 607.299,20.734 C 602.547,20.734 598.799,22.046 596.047,24.669 L 596.047,19.609 C 596.052,12.236 596.304,7.986 596.799,6.861 C 597.177,5.986 597.802,5.363 598.677,4.984 C 599.422,4.732 600.735,4.546 602.612,4.423 L 602.612,2.738 L 582.735,2.738 Z M 419.795,28.232 C 414.668,33.601 412.11,40.79 412.11,49.79 C 412.11,59.415 414.856,67.29 420.36,73.411 C 424.483,78.002 429.523,80.873 435.477,82.02 L 438.104,82.391 L 445.344,82.391 L 446.747,82.31 C 448.402,82.123 450.045,81.843 451.672,81.47 C 454.797,80.595 456.739,80.157 457.485,80.157 C 458.989,80.157 460.051,80.786 460.674,82.034 L 462.36,82.034 L 462.92,64.224 L 461.235,64.224 C 459.737,69.472 457.485,73.349 454.483,75.849 C 451.235,78.472 447.112,79.784 442.11,79.784 C 435.362,79.784 430.11,77.534 426.36,73.034 C 422.61,68.411 420.739,61.974 420.733,53.726 C 420.739,44.976 422.674,37.98 426.547,32.732 C 430.547,27.357 435.987,24.669 442.862,24.669 C 446.739,24.669 450.424,25.417 453.922,26.919 C 457.422,28.54 460.045,30.54 461.795,32.919 L 463.485,31.042 C 461.737,28.167 458.862,25.732 454.862,23.732 C 450.36,21.359 445.485,20.169 440.237,20.169 C 431.614,20.169 424.797,22.857 419.795,28.232 Z M 355.112,25.794 C 350.61,29.667 348.36,34.913 348.36,41.54 C 348.36,45.54 349.362,48.98 351.356,51.853 C 353.485,54.978 356.422,57.101 360.172,58.226 C 358.551,61.597 357.735,64.534 357.735,67.034 C 357.735,70.532 358.924,73.343 361.297,75.47 C 363.42,77.343 366.045,78.28 369.17,78.286 C 371.047,78.28 373.112,77.843 375.356,76.968 C 377.485,76.222 378.733,75.849 379.112,75.849 C 379.356,75.849 379.608,75.972 379.858,76.222 C 380.231,76.468 380.418,76.782 380.424,77.161 L 382.108,77.161 L 382.295,65.909 L 380.61,65.909 C 379.608,68.911 378.045,71.284 375.922,73.034 C 373.799,74.659 371.549,75.47 369.17,75.47 C 364.92,75.47 362.797,73.534 362.797,69.657 C 362.797,65.786 365.731,60.29 371.608,53.165 C 377.106,46.415 383.672,40.042 391.297,34.044 C 392.545,36.044 393.17,38.917 393.17,42.667 C 393.17,45.417 392.36,47.29 390.733,48.292 C 389.858,48.915 388.11,49.417 385.485,49.79 L 385.485,51.476 L 402.36,51.476 L 402.36,49.79 C 400.733,49.661 399.735,49.476 399.358,49.226 C 398.237,48.73 397.549,47.667 397.297,46.042 C 396.295,39.046 395.106,34.417 393.735,32.167 C 401.106,26.792 406.797,23.859 410.797,23.359 L 410.797,21.667 L 398.045,21.667 C 396.545,22.292 393.672,24.105 389.42,27.107 C 384.049,22.607 377.864,20.357 370.86,20.357 C 364.61,20.357 359.356,22.169 355.112,25.794 Z M 77.606,26.169 C 74.854,29.415 73.483,33.48 73.483,38.353 C 73.483,43.978 75.354,48.851 79.11,52.974 C 82.858,57.224 87.483,59.351 92.981,59.351 C 97.727,59.351 101.418,58.226 104.043,55.976 C 103.92,53.48 103.168,51.353 101.791,49.603 L 101.045,49.417 C 98.293,53.042 94.672,54.851 90.17,54.851 C 87.295,54.851 85.045,54.04 83.418,52.413 C 81.418,50.536 80.416,47.476 80.42,43.226 C 80.416,38.107 81.541,33.98 83.791,30.855 C 86.17,27.23 89.797,25.421 94.672,25.421 C 98.543,25.421 102.17,26.419 105.547,28.419 L 106.293,26.734 C 104.666,24.863 102.42,23.359 99.547,22.234 C 96.795,21.109 94.043,20.548 91.295,20.542 C 85.295,20.548 80.731,22.419 77.606,26.169 Z M 272.983,26.355 C 270.358,29.607 269.047,33.857 269.047,39.105 C 269.047,45.103 270.737,49.978 274.108,53.726 C 277.485,57.603 281.858,59.538 287.233,59.538 C 292.237,59.538 296.049,57.853 298.674,54.478 C 301.047,51.476 302.108,47.663 301.858,43.04 L 275.985,43.04 C 275.735,38.294 276.733,34.294 278.983,31.042 C 281.606,27.294 285.362,25.421 290.237,25.421 C 294.114,25.421 297.735,26.419 301.11,28.419 L 301.858,26.734 C 300.231,24.863 297.916,23.359 294.918,22.234 C 292.166,21.109 289.42,20.548 286.672,20.542 C 280.672,20.548 276.108,22.484 272.983,26.355 Z M 240.918,21.667 C 238.416,22.419 236.86,23.359 236.235,24.484 C 235.612,25.359 235.297,28.167 235.297,32.919 L 237.356,32.919 C 238.108,29.667 239.483,27.23 241.483,25.609 C 243.483,24.105 245.858,23.359 248.61,23.359 C 251.362,23.359 253.483,23.855 254.983,24.857 C 256.481,25.853 257.233,27.23 257.233,28.978 C 257.233,31.228 256.108,33.105 253.858,34.605 C 252.731,35.484 250.295,36.667 246.545,38.165 C 243.168,39.542 240.731,40.853 239.233,42.101 C 236.983,43.978 235.858,46.292 235.858,49.038 C 235.858,52.04 236.918,54.54 239.045,56.536 C 241.291,58.54 244.295,59.538 248.043,59.538 C 250.422,59.538 252.86,59.286 255.356,58.786 C 257.483,58.413 258.668,58.038 258.918,57.661 C 259.67,57.036 260.049,53.976 260.043,48.478 L 258.358,48.478 C 257.858,50.351 256.86,52.034 255.356,53.538 C 253.233,55.911 250.668,57.101 247.67,57.101 C 245.92,57.101 244.487,56.728 243.356,55.976 C 242.108,55.101 241.483,53.911 241.483,52.413 C 241.483,50.536 242.545,48.851 244.672,47.353 C 245.547,46.853 247.985,45.728 251.985,43.978 C 255.362,42.607 257.799,41.167 259.297,39.663 C 261.547,37.665 262.672,35.105 262.672,31.98 C 262.672,28.855 261.362,26.228 258.731,24.105 C 256.108,21.855 252.668,20.734 248.422,20.734 C 245.793,20.734 243.291,21.044 240.918,21.667 Z M 476.045,23.544 C 470.674,27.042 467.987,32.605 467.987,40.23 C 467.987,45.728 469.799,50.292 473.422,53.911 C 477.176,57.665 481.987,59.538 487.86,59.538 C 492.36,59.538 496.11,58.605 499.112,56.728 C 504.612,53.23 507.364,47.726 507.358,40.23 C 507.364,34.605 505.549,29.982 501.922,26.355 C 498.174,22.607 493.422,20.734 487.672,20.734 C 482.92,20.734 479.047,21.667 476.045,23.544 Z M 633.737,23.359 C 631.983,25.107 631.108,27.48 631.114,30.482 C 631.108,32.855 632.112,34.919 634.112,36.667 C 635.737,38.042 639.3,39.478 644.8,40.976 C 647.179,41.605 648.741,42.107 649.487,42.48 C 650.864,42.982 651.552,43.54 651.552,44.165 L 651.552,48.478 C 651.552,50.728 651.05,52.478 650.047,53.726 C 648.8,55.224 646.985,55.976 644.612,55.976 C 640.612,55.976 637.675,53.661 635.795,49.038 L 634.864,48.851 C 633.237,50.351 632.297,52.413 632.047,55.036 C 635.3,57.911 639.675,59.351 645.172,59.351 C 652.297,59.351 656.67,56.722 658.297,51.476 C 658.8,49.849 659.05,47.726 659.05,45.103 L 659.05,32.54 C 659.05,28.796 659.364,26.361 659.989,25.23 C 660.612,23.982 662.239,23.359 664.864,23.359 L 666.362,23.359 C 668.233,23.486 669.487,23.673 670.112,23.917 C 671.114,24.169 671.802,24.669 672.175,25.421 C 672.677,26.546 672.923,30.417 672.923,37.04 L 672.923,46.042 C 672.923,51.165 672.55,54.29 671.798,55.415 C 671.173,56.417 669.302,56.913 666.175,56.913 L 666.175,58.786 L 680.239,58.786 L 680.239,52.04 C 683.989,56.913 688.485,59.351 693.739,59.351 C 697.108,59.351 699.86,58.284 701.989,56.161 C 704.612,53.538 705.925,49.667 705.925,44.538 L 705.925,36.294 C 705.925,30.044 706.177,26.361 706.677,25.23 C 707.05,24.607 707.675,24.169 708.55,23.917 C 709.173,23.673 710.42,23.486 712.298,23.359 L 712.298,21.667 L 692.987,21.667 L 692.987,23.359 C 694.485,23.486 695.552,23.673 696.177,23.917 C 696.929,24.169 697.487,24.607 697.86,25.23 C 698.362,26.484 698.612,30.167 698.612,36.294 L 698.612,43.792 C 698.612,47.913 697.86,50.851 696.362,52.601 C 694.987,53.976 692.987,54.663 690.362,54.663 C 687.733,54.663 685.36,53.79 683.237,52.04 C 681.237,50.413 680.239,48.724 680.239,46.974 L 680.239,36.855 C 680.239,30.355 680.485,26.546 680.987,25.421 C 681.36,24.669 681.989,24.169 682.864,23.917 C 683.364,23.673 684.491,23.486 686.239,23.359 L 686.239,21.667 L 666.922,21.667 L 666.922,23.359 L 666.362,23.359 L 666.362,21.667 L 658.297,21.667 C 654.55,21.667 652.362,23.044 651.737,25.794 C 648.735,22.419 645.237,20.734 641.237,20.734 C 638.112,20.734 635.61,21.609 633.737,23.359 Z M 0.011,21.667 L 0.011,23.363 L 1.89,23.758 C 3.646,24.272 4.946,25.139 5.791,26.355 C 7.045,28.105 7.797,30.913 8.041,34.79 L 9.918,71.161 C 10.041,74.159 9.231,76.28 7.481,77.534 C 6.485,78.28 4.793,78.909 2.42,79.411 L 2.42,81.282 L 18.17,81.282 L 36.17,35.169 L 53.791,80.909 L 68.608,80.909 L 68.608,79.032 C 66.235,78.782 64.485,78.03 63.354,76.782 C 62.235,75.534 61.733,73.599 61.856,70.97 L 63.545,33.665 C 63.674,30.044 64.358,27.486 65.606,25.982 C 66.731,24.611 68.608,23.736 71.231,23.359 L 71.231,21.667 L 49.668,21.667 L 49.668,23.359 C 52.041,23.736 53.668,24.484 54.543,25.609 C 55.418,26.857 55.791,28.919 55.668,31.794 L 53.791,70.782 L 35.045,22.046 L 32.793,22.046 L 13.668,70.782 L 11.983,34.23 C 11.856,30.478 12.293,27.853 13.295,26.355 C 14.17,24.98 16.106,23.982 19.108,23.359 L 19.108,21.667 L 0.011,21.667 Z M 108.916,21.667 L 108.916,23.359 C 110.666,23.609 111.92,23.855 112.672,24.105 C 113.547,24.607 114.235,25.421 114.731,26.542 C 115.36,28.419 115.668,33.415 115.668,41.54 L 115.668,62.161 C 115.668,69.909 115.36,74.659 114.731,76.409 C 114.358,77.534 113.668,78.286 112.672,78.659 C 111.92,79.038 110.666,79.288 108.916,79.411 L 108.916,81.282 L 130.293,81.282 L 130.293,79.411 C 128.543,79.159 127.36,78.909 126.731,78.659 C 125.733,78.163 125.045,77.411 124.672,76.409 C 123.92,74.532 123.547,69.845 123.547,62.347 L 123.547,51.103 L 139.295,68.532 C 142.043,71.534 143.418,74.036 143.418,76.036 C 143.418,77.784 142.166,78.909 139.67,79.411 L 139.67,81.282 L 159.733,81.282 L 159.733,79.411 C 156.981,79.288 154.485,78.409 152.235,76.782 C 150.485,75.534 147.856,72.911 144.358,68.911 L 131.606,54.851 C 135.104,50.228 139.985,44.228 146.235,36.855 C 150.987,31.351 154.737,27.667 157.483,25.794 C 158.42,25.107 159.39,24.56 160.39,24.153 L 163.436,23.369 L 164.582,23.464 C 165.753,23.583 166.574,23.734 167.045,23.917 C 167.92,24.169 168.545,24.669 168.918,25.421 C 169.541,26.546 169.856,30.417 169.856,37.04 L 169.856,46.042 C 169.856,51.165 169.483,54.29 168.731,55.415 C 168.108,56.417 166.229,56.913 163.11,56.913 L 163.11,58.786 L 176.981,58.786 L 176.981,36.855 C 176.981,30.355 177.297,26.546 177.92,25.421 C 178.17,24.669 178.731,24.169 179.606,23.917 C 180.229,23.673 181.356,23.486 182.981,23.359 L 182.981,21.667 L 149.233,21.667 C 144.981,26.419 137.354,35.607 126.358,49.226 L 123.547,46.042 L 123.547,42.853 C 123.547,33.73 123.791,28.361 124.293,26.734 C 124.795,25.609 125.483,24.792 126.358,24.296 C 127.104,24.046 128.416,23.736 130.293,23.359 L 130.293,21.667 L 108.916,21.667 Z M 185.985,21.667 L 185.985,23.359 C 187.856,23.486 189.104,23.673 189.735,23.917 C 190.731,24.169 191.418,24.669 191.793,25.421 C 192.293,26.546 192.545,30.417 192.545,37.04 L 192.545,46.042 C 192.545,51.165 192.17,54.29 191.418,55.415 C 190.795,56.417 188.918,56.913 185.793,56.913 L 185.793,58.786 L 199.856,58.786 L 199.856,52.04 C 203.606,56.913 208.108,59.351 213.356,59.351 C 216.731,59.351 219.479,58.284 221.606,56.161 C 224.108,53.538 225.36,49.667 225.356,44.538 L 225.356,36.294 C 225.36,30.044 225.67,26.361 226.293,25.23 C 226.668,24.607 227.297,24.169 228.172,23.917 C 228.795,23.673 230.043,23.486 231.92,23.359 L 231.92,21.667 L 212.608,21.667 L 212.608,23.359 C 214.108,23.486 215.104,23.673 215.606,23.917 C 216.481,24.169 217.11,24.607 217.483,25.23 C 217.985,26.484 218.235,30.167 218.235,36.294 L 218.235,43.792 C 218.235,47.913 217.483,50.851 215.985,52.601 C 214.608,53.976 212.608,54.663 209.985,54.663 C 207.36,54.663 204.987,53.79 202.86,52.04 C 200.86,50.413 199.856,48.724 199.856,46.974 L 199.856,36.855 C 199.856,30.355 200.108,26.546 200.608,25.421 C 200.983,24.669 201.606,24.169 202.481,23.917 C 202.983,23.673 204.108,23.486 205.856,23.359 L 205.856,21.667 L 185.985,21.667 Z M 511.299,21.667 L 511.299,23.359 C 513.049,23.486 514.239,23.609 514.862,23.732 C 515.737,23.859 516.36,24.296 516.735,25.042 C 517.364,26.046 517.672,29.544 517.672,35.542 L 517.672,46.042 C 517.672,51.165 517.299,54.29 516.547,55.415 C 515.922,56.417 514.045,56.913 510.92,56.913 L 510.92,58.786 L 524.797,58.786 L 524.797,52.04 C 526.424,54.167 528.36,55.853 530.612,57.101 C 532.985,58.599 535.422,59.351 537.924,59.351 C 543.924,59.351 547.672,56.599 549.172,51.103 C 553.049,56.599 557.737,59.351 563.235,59.351 C 566.862,59.351 569.737,58.284 571.86,56.161 C 574.233,53.661 575.422,49.978 575.422,45.103 L 575.422,35.542 C 575.422,29.794 575.672,26.484 576.174,25.609 C 576.554,24.728 577.177,24.169 578.047,23.917 C 578.799,23.673 580.11,23.486 581.987,23.359 L 581.987,21.667 L 562.297,21.667 L 562.297,23.359 C 563.795,23.486 564.862,23.673 565.487,23.917 C 566.239,24.169 566.797,24.669 567.172,25.421 C 567.672,26.546 567.924,29.917 567.924,35.542 L 567.924,44.165 C 567.924,51.161 565.364,54.663 560.239,54.663 C 557.487,54.663 555.043,53.79 552.92,52.04 C 550.92,50.413 549.924,48.659 549.924,46.788 L 549.924,36.294 C 549.924,30.29 550.174,26.728 550.676,25.609 C 550.926,24.857 551.487,24.296 552.362,23.917 C 552.985,23.796 554.174,23.609 555.924,23.359 L 555.924,21.667 L 537.358,21.667 L 537.358,23.359 C 538.862,23.486 539.924,23.673 540.547,23.917 C 541.299,24.169 541.801,24.728 542.045,25.609 C 542.676,26.857 542.985,30.546 542.985,36.667 L 542.985,44.165 C 542.985,47.786 542.36,50.413 541.112,52.04 C 539.86,53.79 537.795,54.663 534.92,54.663 C 532.42,54.663 530.11,53.79 527.987,52.04 C 525.86,50.413 524.797,48.601 524.797,46.601 L 524.797,35.73 C 524.797,29.982 525.108,26.546 525.737,25.421 C 526.11,24.669 526.735,24.169 527.608,23.917 C 528.11,23.796 529.176,23.609 530.797,23.359 L 530.797,21.667 L 511.299,21.667 Z M 614.985,27.859 C 616.985,30.605 617.989,34.476 617.989,39.478 C 617.989,44.224 616.862,47.913 614.612,50.536 C 612.485,53.288 609.481,54.663 605.61,54.663 C 603.108,54.663 600.92,53.976 599.049,52.601 C 597.049,51.353 596.052,49.913 596.047,48.292 L 596.047,29.917 C 596.052,28.167 597.177,26.669 599.422,25.421 C 601.552,24.173 603.86,23.544 606.362,23.544 C 610.11,23.544 612.985,24.984 614.985,27.859 Z M 497.049,27.667 C 499.049,30.044 500.051,33.419 500.045,37.792 C 500.051,43.54 498.674,48.163 495.922,51.661 C 493.422,54.915 490.36,56.54 486.733,56.536 C 483.112,56.54 480.295,55.351 478.295,52.974 C 476.295,50.601 475.299,47.167 475.299,42.667 C 475.299,36.667 476.612,31.98 479.235,28.605 C 481.737,25.486 484.797,23.923 488.424,23.917 C 492.174,23.923 495.049,25.171 497.049,27.667 Z M 649.114,26.542 C 650.735,27.671 651.552,28.984 651.552,30.482 L 651.552,40.603 C 650.554,40.107 649.114,39.605 647.237,39.105 C 645.114,38.353 643.737,37.851 643.114,37.607 C 639.983,36.353 638.42,34.167 638.427,31.042 C 638.42,29.042 638.985,27.48 640.112,26.355 C 641.114,25.359 642.427,24.857 644.047,24.857 C 645.802,24.857 647.487,25.421 649.114,26.542 Z M 386.61,28.978 C 374.983,37.607 366.61,46.48 361.485,55.603 C 359.362,54.974 357.67,53.661 356.422,51.661 C 355.17,49.661 354.545,47.103 354.545,43.978 C 354.545,38.853 356.422,34.54 360.172,31.042 C 363.922,27.667 368.545,25.982 374.045,25.982 C 379.799,25.982 383.987,26.98 386.61,28.978 Z M 292.481,53.726 C 290.86,55.603 288.61,56.54 285.735,56.536 C 279.981,56.54 276.733,52.98 275.985,45.855 L 295.11,45.855 C 295.106,49.23 294.231,51.853 292.481,53.726 Z M 169.67,70.597 C 168.795,71.476 168.358,72.601 168.358,73.972 C 168.358,75.347 168.795,76.532 169.67,77.534 C 170.545,78.409 171.67,78.845 173.045,78.845 C 174.416,78.845 175.541,78.409 176.422,77.534 C 177.418,76.532 177.92,75.347 177.92,73.972 C 177.92,72.724 177.418,71.599 176.422,70.597 C 175.541,69.722 174.416,69.284 173.045,69.284 C 171.67,69.284 170.545,69.722 169.67,70.597 Z" fill="#ffffff" fill-rule="nonzero" stroke-linejoin="round" stroke-linecap="round" stroke="none" stroke-width="0" marker-start="none" marker-end="none" stroke-miterlimit="79.8403193612775"/>
   </g>
  </g>
 </g>
</svg>
