<?xml version="1.0" encoding="utf-8"?>
<!-- Generator: Adobe Illustrator 16.2.1, SVG Export Plug-In . SVG Version: 6.00 Build 0)  -->
<!DOCTYPE svg PUBLIC "-//W3C//DTD SVG 1.1//EN" "http://www.w3.org/Graphics/SVG/1.1/DTD/svg11.dtd">
<svg version="1.1" id="Layer_1" xmlns="http://www.w3.org/2000/svg" xmlns:xlink="http://www.w3.org/1999/xlink" x="0px" y="0px"
	 width="24px" height="24px" viewBox="0 0 24 24" enable-background="new 0 0 24 24" xml:space="preserve">
<path fill="#FFFFFF" d="M3,5h18c0.275,0,0.512,0.098,0.707,0.293S22,5.724,22,6s-0.098,0.512-0.293,0.707S21.275,7,21,7H3
	C2.724,7,2.488,6.902,2.293,6.707S2,6.276,2,6s0.098-0.512,0.293-0.707S2.724,5,3,5z M3,17h18c0.275,0,0.512,0.098,0.707,0.293
	S22,17.725,22,18s-0.098,0.512-0.293,0.707S21.275,19,21,19H3c-0.276,0-0.512-0.098-0.707-0.293S2,18.275,2,18
	s0.098-0.512,0.293-0.707S2.724,17,3,17z M3,11h18c0.275,0,0.512,0.098,0.707,0.293S22,11.724,22,12s-0.098,0.512-0.293,0.707
	S21.275,13,21,13H3c-0.276,0-0.512-0.098-0.707-0.293S2,12.276,2,12s0.098-0.512,0.293-0.707S2.724,11,3,11z"/>
</svg>
