<?xml version="1.0" encoding="utf-8"?>
<!-- Generator: Adobe Illustrator 16.2.1, SVG Export Plug-In . SVG Version: 6.00 Build 0)  -->
<!DOCTYPE svg PUBLIC "-//W3C//DTD SVG 1.1//EN" "http://www.w3.org/Graphics/SVG/1.1/DTD/svg11.dtd">
<svg version="1.1" id="Layer_1" xmlns="http://www.w3.org/2000/svg" xmlns:xlink="http://www.w3.org/1999/xlink" x="0px" y="0px"
	 width="444.008px" height="140px" viewBox="0 0 444.008 140" enable-background="new 0 0 444.008 140" xml:space="preserve">
<g>
	<defs>
		<rect id="SVGID_1_" x="-159" y="-230" width="800" height="600"/>
	</defs>
	<clipPath id="SVGID_2_">
		<use xlink:href="#SVGID_1_"  overflow="visible"/>
	</clipPath>
	<path clip-path="url(#SVGID_2_)" fill="#ED1828" d="M120.155,24.284c-1.149,6.051-5.225,11.092-10.665,13.607
		c-1.858,1.169-3.31,3.431-3.31,5.819v50.979c0,2.692,1.73,5.028,3.958,6.2c5.543,2.863,9.568,8.381,10.209,14.872
		c10.858-12.1,17.466-28.092,17.466-45.63C137.813,52.488,131.129,36.409,120.155,24.284"/>
	<path clip-path="url(#SVGID_2_)" fill="#ED1828" d="M27.676,100.715h-0.052c2.273-0.958,3.825-3.303,3.825-6.026V71.512
		c0-3.074-1.294-4.831-3.244-5.952c-0.159-0.077-0.315-0.16-0.471-0.241c-0.037-0.018-0.072-0.037-0.11-0.053h0.008
		c-5.983-3.15-10.075-9.408-10.075-16.627c0-10.367,8.435-18.783,18.803-18.783c10.367,0,18.803,8.474,18.803,18.842
		c0,2.44-0.473,4.592-1.322,6.988h0.002c-0.511,1.916-0.041,4.796,1.629,6.502l33.742,34.32h0.002
		c3.534,3.575,7.383,2.2,7.383-1.819V43.71c0-2.487-1.174-4.828-3.124-5.948c-0.16-0.078-0.195-0.156-0.351-0.237
		c-0.038-0.018-0.072-0.044-0.109-0.044h0.007c-5.984-3.353-10.091-9.435-10.091-16.656c0-6.442,3.254-12.14,8.203-15.532
		c-6.809-2.274-14.093-3.509-21.667-3.509c-37.746,0-68.346,30.6-68.346,68.347c0,17.082,6.267,32.701,16.628,44.682
		C18.623,108.742,22.425,103.646,27.676,100.715"/>
	<path clip-path="url(#SVGID_2_)" fill="#ED1828" d="M101.75,30.038c5.085,0,9.222-4.136,9.222-9.221s-4.137-9.222-9.222-9.222
		s-9.222,4.137-9.222,9.222S96.665,30.038,101.75,30.038"/>
	<path clip-path="url(#SVGID_2_)" fill="#797A7C" d="M92.528,117.602c0,5.085,4.137,9.221,9.222,9.221s9.222-4.136,9.222-9.221
		s-4.137-9.222-9.222-9.222S92.528,112.517,92.528,117.602"/>
	<path clip-path="url(#SVGID_2_)" fill="#ED1828" d="M82.947,117.493c0-2.352,0.44-4.587,1.231-6.656l-0.016,0.006
		c0.292-0.771,0.452-1.606,0.452-2.479c0-1.951-0.797-3.715-2.084-4.984l0.002-0.002L48.625,68.81
		c-3.154-3.085-7.595-2.614-7.595,2.701v23.178c0,2.692,1.61,5.028,3.839,6.201c6.054,3.126,10.248,9.415,10.248,16.686
		c0,7.126-3.963,13.324-9.807,16.506c7.512,2.839,15.652,4.396,24.157,4.396c8.333,0,16.314-1.493,23.697-4.224
		C87.103,131.114,82.947,124.77,82.947,117.493"/>
	<path clip-path="url(#SVGID_2_)" fill="#ED1828" d="M36.36,108.38c-5.085,0-9.222,4.137-9.222,9.222s4.137,9.221,9.222,9.221
		c5.084,0,9.222-4.136,9.222-9.221S41.444,108.38,36.36,108.38"/>
	<path clip-path="url(#SVGID_2_)" fill="#797A7C" d="M45.582,48.619c0-5.084-4.137-9.222-9.222-9.222
		c-5.084,0-9.222,4.138-9.222,9.222c0,5.085,4.138,9.222,9.222,9.222C41.444,57.841,45.582,53.704,45.582,48.619"/>
	<path clip-path="url(#SVGID_2_)" fill="#797A7C" d="M175.946,88.794V66.773c0-9.089-3.276-13.634-9.828-13.634
		c-3.646,0-6.639,1.336-8.979,4.009c-2.34,2.673-3.509,5.979-3.509,9.92v21.726h-3.4V50.959h3.4v6.872h0.147
		c2.759-5.197,7.069-7.796,12.932-7.796c4.089,0,7.217,1.362,9.385,4.083c2.167,2.722,3.251,6.608,3.251,11.657v23.019H175.946z"/>
	<path clip-path="url(#SVGID_2_)" fill="#797A7C" d="M191.54,70.024c0,5.197,1.2,9.262,3.602,12.192
		c2.401,2.932,5.696,4.396,9.883,4.396c4.237,0,8.375-1.563,12.415-4.691v3.621c-3.917,2.783-8.289,4.175-13.116,4.175
		c-4.878,0-8.819-1.749-11.824-5.247c-3.005-3.497-4.508-8.436-4.508-14.816c0-5.517,1.571-10.166,4.711-13.948
		c3.141-3.781,7.224-5.671,12.249-5.671c4.704,0,8.313,1.65,10.825,4.951c2.513,3.301,3.769,7.808,3.769,13.523v1.515H191.54z
		 M215.999,66.92c-0.147-4.36-1.195-7.746-3.141-10.161c-1.945-2.413-4.63-3.621-8.054-3.621c-3.547,0-6.485,1.189-8.812,3.566
		c-2.328,2.377-3.764,5.782-4.305,10.216H215.999z"/>
	<path clip-path="url(#SVGID_2_)" fill="#797A7C" d="M251.543,88.794v-7.573h-0.148c-1.207,2.586-2.961,4.648-5.265,6.188
		s-4.858,2.31-7.667,2.31c-3.597,0-6.442-1.01-8.535-3.03c-2.094-2.02-3.141-4.568-3.141-7.648c0-6.601,4.372-10.591,13.117-11.971
		l11.639-1.737c0-8.128-3.055-12.192-9.163-12.192c-4.164,0-8.215,1.675-12.156,5.024v-4.101c1.404-1.108,3.307-2.056,5.709-2.845
		c2.402-0.788,4.661-1.182,6.78-1.182c3.891,0,6.902,1.207,9.033,3.621c2.132,2.414,3.196,5.924,3.196,10.53v24.608H251.543z
		 M241.123,69.95c-3.965,0.567-6.75,1.484-8.35,2.753c-1.602,1.27-2.402,3.332-2.402,6.188c0,2.241,0.745,4.089,2.235,5.542
		c1.491,1.455,3.566,2.18,6.227,2.18c3.645,0,6.674-1.348,9.088-4.045s3.621-6.176,3.621-10.438v-3.696L241.123,69.95z"/>
	<path clip-path="url(#SVGID_2_)" fill="#797A7C" d="M284.168,54.506c-1.133-0.813-2.463-1.219-3.99-1.219
		c-2.98,0-5.48,1.539-7.5,4.618c-2.021,3.08-3.031,7.452-3.031,13.117v17.772h-3.324V50.959h3.324v8.387h0.148
		c0.862-2.882,2.229-5.123,4.102-6.724c1.871-1.601,4.038-2.402,6.503-2.402c1.404,0,2.66,0.222,3.769,0.665V54.506z"/>
	<polygon clip-path="url(#SVGID_2_)" fill="#ED1828" points="295.696,39.172 295.696,60.788 315.279,60.788 315.279,64.112 
		295.696,64.112 295.696,88.794 292.038,88.794 292.038,35.811 316.793,35.811 316.793,39.172 	"/>
	<path clip-path="url(#SVGID_2_)" fill="#ED1828" d="M341.66,89.718c-5.518,0-9.885-1.816-13.098-5.45
		c-3.215-3.633-4.822-8.355-4.822-14.17c0-6.281,1.682-11.195,5.043-14.742c3.363-3.547,7.789-5.321,13.283-5.321
		c5.395,0,9.656,1.762,12.783,5.284c3.129,3.523,4.693,8.4,4.693,14.631c0,5.888-1.596,10.654-4.785,14.3
		C351.568,87.895,347.201,89.718,341.66,89.718 M341.918,53.139c-4.459,0-8.012,1.503-10.658,4.508
		c-2.648,3.005-3.973,7.18-3.973,12.525c0,4.951,1.293,8.93,3.879,11.935s6.121,4.507,10.605,4.507
		c4.557,0,8.066-1.477,10.529-4.434c2.463-2.955,3.695-7.057,3.695-12.303c0-5.395-1.228-9.533-3.676-12.415
		C349.867,54.58,346.4,53.139,341.918,53.139"/>
	<path clip-path="url(#SVGID_2_)" fill="#ED1828" d="M386.773,54.506c-1.133-0.813-2.463-1.219-3.99-1.219
		c-2.98,0-5.48,1.539-7.5,4.618c-2.02,3.08-3.029,7.452-3.029,13.117v17.772h-3.326V50.959h3.326v8.387h0.146
		c0.863-2.882,2.23-5.123,4.102-6.724c1.873-1.601,4.041-2.402,6.504-2.402c1.404,0,2.66,0.222,3.768,0.665V54.506z"/>
	<path clip-path="url(#SVGID_2_)" fill="#ED1828" d="M440.607,88.794v-22.76c0-4.754-0.744-8.092-2.234-10.013
		s-3.85-2.882-7.076-2.882c-2.98,0-5.555,1.281-7.723,3.843s-3.25,5.776-3.25,9.643v22.169h-3.4V65.775
		c0-8.424-3.201-12.636-9.605-12.636c-3.08,0-5.643,1.287-7.686,3.861c-2.045,2.574-3.066,5.906-3.066,9.995v21.799h-3.4V50.959h3.4
		v6.281h0.146c2.637-4.803,6.49-7.205,11.566-7.205c2.758,0,5.117,0.795,7.074,2.384c1.959,1.588,3.283,3.676,3.973,6.262
		c1.182-2.734,2.875-4.859,5.08-6.373c2.205-1.515,4.6-2.273,7.186-2.273c8.277,0,12.416,5.124,12.416,15.371v23.388H440.607z"/>
</g>
</svg>
