<?xml version="1.0" encoding="utf-8"?>
<!-- Generator: Adobe Illustrator 19.2.1, SVG Export Plug-In . SVG Version: 6.00 Build 0)  -->
<svg version="1.1" id="Layer_1" xmlns="http://www.w3.org/2000/svg" xmlns:xlink="http://www.w3.org/1999/xlink" x="0px" y="0px"
	 viewBox="0 0 25 25" style="enable-background:new 0 0 25 25;" xml:space="preserve">
<style type="text/css">
	.st0{fill:#FFFFFF;}
</style>
<g>
	<path class="st0" d="M21.8,4.1c-0.2,1.1-1,2-2,2.5c-0.3,0.2-0.6,0.6-0.6,1.1V17c0,0.5,0.3,0.9,0.7,1.1c1,0.5,1.7,1.5,1.9,2.7
		c2-2.2,3.2-5.1,3.2-8.3C25,9.3,23.8,6.3,21.8,4.1L21.8,4.1z"/>
	<path class="st0" d="M4.9,18.1L4.9,18.1c0.4-0.2,0.7-0.6,0.7-1.1v-4.2c0-0.6-0.2-0.9-0.6-1.1c0,0-0.1,0-0.1,0c0,0,0,0,0,0h0
		C3.8,11,3,9.9,3,8.6c0-1.9,1.5-3.4,3.4-3.4c1.9,0,3.4,1.5,3.4,3.4c0,0.4-0.1,0.8-0.2,1.3h0c-0.1,0.4,0,0.9,0.3,1.2l6.2,6.3h0
		c0.6,0.7,1.4,0.4,1.4-0.3V7.7c0-0.5-0.2-0.9-0.6-1.1c0,0,0,0-0.1,0c0,0,0,0,0,0h0c-1.1-0.6-1.8-1.7-1.8-3c0-1.2,0.6-2.2,1.5-2.8
		c-1.2-0.4-2.6-0.6-4-0.6C5.6,0,0,5.6,0,12.5c0,3.1,1.1,6,3,8.2C3.2,19.6,3.9,18.6,4.9,18.1L4.9,18.1z"/>
	<path class="st0" d="M18.4,5.2c0.9,0,1.7-0.8,1.7-1.7c0-0.9-0.8-1.7-1.7-1.7c-0.9,0-1.7,0.8-1.7,1.7C16.7,4.4,17.5,5.2,18.4,5.2
		L18.4,5.2z"/>
	<path class="st0" d="M16.7,21.2c0,0.9,0.8,1.7,1.7,1.7c0.9,0,1.7-0.8,1.7-1.7s-0.8-1.7-1.7-1.7C17.5,19.5,16.7,20.3,16.7,21.2
		L16.7,21.2z"/>
	<path class="st0" d="M15,21.2c0-0.4,0.1-0.8,0.2-1.2l0,0c0.1-0.1,0.1-0.3,0.1-0.5c0-0.4-0.1-0.7-0.4-0.9l0,0l-6.2-6.3
		c-0.6-0.6-1.4-0.5-1.4,0.5V17c0,0.5,0.3,0.9,0.7,1.1c1.1,0.6,1.9,1.7,1.9,3.1c0,1.3-0.7,2.4-1.8,3c1.4,0.5,2.9,0.8,4.4,0.8
		c1.5,0,3-0.3,4.3-0.8C15.7,23.7,15,22.5,15,21.2L15,21.2z"/>
	<path class="st0" d="M6.4,19.5c-0.9,0-1.7,0.8-1.7,1.7s0.8,1.7,1.7,1.7c0.9,0,1.7-0.8,1.7-1.7S7.4,19.5,6.4,19.5L6.4,19.5z"/>
	<path class="st0" d="M8.1,8.6c0-0.9-0.8-1.7-1.7-1.7c-0.9,0-1.7,0.8-1.7,1.7c0,0.9,0.8,1.7,1.7,1.7C7.4,10.3,8.1,9.5,8.1,8.6
		L8.1,8.6z"/>
</g>
</svg>
