<?xml version="1.0" encoding="utf-8"?>
<!-- Generator: Adobe Illustrator 14.0.0, SVG Export Plug-In . SVG Version: 6.00 Build 43363)  -->
<!DOCTYPE svg PUBLIC "-//W3C//DTD SVG 1.1//EN" "http://www.w3.org/Graphics/SVG/1.1/DTD/svg11.dtd">
<svg version="1.1" id="Web_Player" xmlns="http://www.w3.org/2000/svg" xmlns:xlink="http://www.w3.org/1999/xlink" x="0px" y="0px"
	 width="106.385px" height="106.383px" viewBox="0 0 106.385 106.383" enable-background="new 0 0 106.385 106.383"
	 xml:space="preserve">
<g>
	<g>
		<path fill="#FFFFFF" d="M53.192,106.383C23.861,106.383,0,82.521,0,53.191S23.861,0,53.192,0c29.33,0,53.192,23.861,53.192,53.191
			S82.522,106.383,53.192,106.383L53.192,106.383z M53.192,4.228c-26.999,0-48.965,21.965-48.965,48.964
			s21.966,48.964,48.965,48.964s48.965-21.965,48.965-48.964S80.191,4.228,53.192,4.228L53.192,4.228z"/>
	</g>
	<path fill="#FFFFFF" d="M83.854,50.34c0.002-0.003,0-0.006,0-0.009l-0.253-0.146c-0.001-0.001-0.001-0.003-0.002-0.003
		L36.797,23.021c-0.016,0.015-0.049-0.051-0.066-0.038c-2.279-1.047-2.695,0.658-2.757,1.613c-0.001,0.001-0.001,0.001-0.003,0.001
		v0.015c-0.02,0.327,0,0.563,0,0.563v53.521c-0.009,0.237-0.006,0.454,0,0.661v0.105c0.003,0,0.004,0.002,0.006,0.004
		c0.192,3.863,3.269,2.576,4.297,2.033c0.002,0,0.004,0.001,0.004,0.002l0.087-0.051c0.152-0.083,0.243-0.141,0.243-0.141l0,0
		L83.6,55.2C83.6,55.2,88.141,53.013,83.854,50.34z"/>
</g>
</svg>
