<?xml version="1.0" encoding="utf-8"?>
<!-- Generator: Adobe Illustrator 19.2.1, SVG Export Plug-In . SVG Version: 6.00 Build 0)  -->
<svg version="1.1" id="Layer_1" xmlns="http://www.w3.org/2000/svg" xmlns:xlink="http://www.w3.org/1999/xlink" x="0px" y="0px"
	 viewBox="0 0 450 150" style="enable-background:new 0 0 450 150;" xml:space="preserve">
<style type="text/css">
	.st0{fill:#FFFFFF;}
</style>
<g>
	<path class="st0" d="M184.4,86.5c0-6.6-0.2-11.4-0.4-15.7h10.7l0.5,9.3h0.4c2.4-6.9,8.1-10.4,13.4-10.4c1.2,0,1.9,0.1,2.9,0.3v11.7
		c-1.1-0.2-2.2-0.4-3.7-0.4c-5.9,0-10,3.8-11.1,9.4c-0.2,1.1-0.3,2.4-0.3,3.7v25.4h-12.4L184.4,86.5"/>
	<path class="st0" d="M248.5,89.9c0.1-4.6-1.9-12-10.3-12c-7.6,0-10.8,6.9-11.3,12H248.5 M226.9,98.6c0.3,8.9,7.2,12.8,15.2,12.8
		c5.7,0,9.8-0.9,13.5-2.3l1.9,8.5c-4.2,1.8-10,3.1-17.1,3.1c-15.9,0-25.3-9.8-25.3-24.9c0-13.5,8.2-26.4,24-26.4
		c15.9,0,21.1,13.1,21.1,23.9c0,2.3-0.2,4.1-0.5,5.3L226.9,98.6z"/>
	<path class="st0" d="M400.9,93.9c-10.5-0.3-24.4,1.3-24.4,12.9c0,6.9,4.6,10.1,9.6,10.1c8.1,0,12.6-5,14.3-9.7
		c0.4-1,0.5-2.1,0.5-2.9L400.9,93.9 M405.7,108.3c0,3.8,0.2,7.8,0.7,11.5H402l-0.7-6.9h-0.2c-2.3,3.7-7.7,8-15.4,8
		c-9.7,0-14.2-6.8-14.2-13.3c0-11.1,9.8-17.9,29.5-17.7v-1.3c0-4.8-0.9-14.3-12.4-14.2c-4.2,0-8.6,1.1-12.1,3.6l-1.5-3.5
		c4.4-3,9.8-4.2,14.2-4.2c13.9,0,16.6,10.5,16.6,19.1L405.7,108.3L405.7,108.3z"/>
	<path class="st0" d="M424.7,60.8v10.7h13.8v3.9h-13.8v31.4c0,6.2,1.9,10,7.1,10c2.5,0,4.2-0.3,5.5-0.8l0.6,3.7
		c-1.6,0.7-3.8,1.1-6.7,1.1c-3.5,0-6.5-1.1-8.3-3.4c-2.2-2.5-3-6.6-3-11.5V75.3h-8.2v-3.9h8.2v-8.9L424.7,60.8"/>
	<path class="st0" d="M346,70.3c-3.7,0-7,1.1-9.7,2.8c-2.8,1.7-5.2,4.3-6.6,7h-0.2V56.2l-4.8-1.3v64.9h4.8V90.2c0-2,0.2-3.3,0.7-4.8
		c2.1-6,7.7-10.9,14.6-10.9c9.9,0,13.3,7.9,13.3,16.6v28.6h4.8V90.7C362.7,72.6,350.6,70.3,346,70.3"/>
	<g>
		<path class="st0" d="M301.2,98.5c0,1.3-0.1,2.5-0.4,3.6c-1.2,5.4-5.6,8.8-10.7,8.8c-7.8,0-12.3-6.6-12.3-15.6
			c0-9.1,4.5-16.2,12.4-16.2c5.6,0,9.6,3.9,10.7,8.7c0.2,1,0.3,2.2,0.3,3.2L301.2,98.5 M313.5,51.8l-12.4-3.4V76H301
			c-2.2-3.6-7-6.4-13.7-6.4c-11.8,0-22.1,9.8-22,26.2c0,15.1,9.3,25.1,21,25.1c7.1,0,13-3.4,15.9-8.9h0.2l0.6,7.8h11
			c-0.2-3.3-0.4-8.8-0.4-13.8L313.5,51.8L313.5,51.8z"/>
	</g>
	<path class="st0" d="M92.1,114.3c0.4,0.4,1,1.6,0.2,3.1c-0.4,0.8-0.9,1.4-1.8,2.1c-1,0.8-3,1.8-5.7,0.1c-1.4-0.9-1.6-1.2-3.5-1
		c-1.4,0.2-2-1.2-1.5-2.5c0.5-1.2,2.6-2.2,5.3-0.6c1.2,0.7,3,2.2,4.7,0.9c0.7-0.5,1.1-0.9,2-2c0.1-0.1,0.1-0.1,0.2-0.1
		C92,114.3,92.1,114.3,92.1,114.3"/>
	<g>
		<path class="st0" d="M69,39.9c-3.5,0-6,0.5-8.2,0.5c-2.2,0.1-3.8-1.5-4.6-2.5c-0.7-0.8-2.7-1.6-3.8,1c-1.1,2.6,1,5.4,2.7,5.7
			c0,0,2.9,5.3,5.1,3c1.6-1.7,2.4-2.5,10.7-3.2c3.9-0.3,4.3-1.2,4.2-2.2C74.9,41.2,72.5,39.9,69,39.9z"/>
		<path class="st0" d="M88.9,28.4c-0.2,0-0.3,0-0.4,0c-0.8,0.1-1.6,0.1-2.4,0.2c-2.7,0.3-5.1,1-6.7,1.8c-0.1,0.1-0.2,0.1-0.2,0.2
			c0,0.1,0.1,0.2,0.3,0.2c0.5-0.1,1-0.1,1.4-0.2c4.5-0.4,8.2,0.3,8.4,1.7c0.2,1-1.8,2.1-4.7,2.7c-0.2,0.1-0.3,0.2-0.3,0.3
			c0,0.2,0.1,0.3,0.3,0.3c1.2,0.3,2.6,0.5,4.1,0.6c4.6,0.1,8.3-1.6,8.4-3.7C97.2,30.3,93.5,28.5,88.9,28.4z"/>
		<path class="st0" d="M76.4,10.4C36.8,10.4,4.8,42.5,4.8,82c0,8,1.3,15.7,3.7,22.9h5c4.4,0,8.5-1,12-2.8c0.9-0.5,1.9-0.7,2.9-0.7
			c2.2,0,4.1,0.9,5.3,2.8c1,1.8,2,2.8,3.2,3.6c1,0.6,2.4,1.2,4.4,1.1c1-0.1,2.4-0.3,2.7-1.2c0.4-1.1-0.1-2-1.4-2.5
			c-1.9-0.8-2.4-2-3.5-3.8c-1-1.8-3.3-2.8-3.6-6.2c-0.3-3.4,2.3-7.6,7.6-6.3c3.8,1,6.2,5.6,7.1,7.2c0.5,0.8,2.1,1.8,3.5,0.6
			c1.4-1.2,2.6-1.2,3.7,0.4c0.9,1.3,7.3,9.9,14.3,10.1c7.1,0.2,10.8-1.6,13.9-1.5c2.2,0.1,3.2,1.2,4.5,1.4c2.2,0.4,3.7-1.6,6.1-1.5
			c1.9,0.1,4,1.4,6.2,1.4c2.2,0,6.7-2.6,6.7-1.6c-0.2,1.9-1.6,5.3-2,6.8c-0.3,1.1,0,3.7-0.7,5.8c-0.6,2.2-2.6,4.9-3.1,5.6
			c-1.8,2.6-3,3.4-4.5,6.2c-1.6,3.1-4.2,5.9-4.9,6.8c-0.9,1.1,5-0.1,7-2c1.8-1.7,4.9-6.7,9.7-7.8c3.3-0.7,4-2,3.6-3.2
			c-0.1-0.2-0.1-0.3-0.1-0.5c0-0.5,0.3-0.8,0.6-1c3.4-1.4,8-2.3,13-2.3c3,0,5.9,0.4,8.6,1C143.7,109.7,148,96.3,148,82
			C148,42.5,115.9,10.4,76.4,10.4z M134.6,80.6c-3.5,18.8-34.3,25.2-64.3,16.1c-28.6-8.6-53.6-25.9-50.7-36c1.7-5.9,11-8.4,23.5-7
			c-1.9,3.9-1.8,8.4,6.5,13.4c10,5.7,27,10.6,31.6,10.1c1.7-0.2,3.3-1,1.7-2.1c-1.6-1-2.9-3.1-3.8-6.7c-0.5-2-1-4.8-11.8-6.8
			c-23.2-4.5-22.3-11-21.6-14.8c0,0,2-9.2,2.9-12.5c0.8-3.3,3.1-10.7,18-7.4c8.6,2,13.3-0.5,15.6-1.1c6.5-1.7,13.6-0.5,17.6,3.5
			c4,4.2,9.7,17.1,12.4,26.8c1.3,4.9,1,7.3,0.3,9c-0.5,1.1-0.8,1.9-2.5,4.7c-0.3,0.5-0.1,1,0.6,0.7c4.5-2.3,5.4-5.3,6.2-7.7
			C128.9,65.6,136.1,72,134.6,80.6z"/>
	</g>
	<path class="st0" d="M145.2,117.7v-0.6h0.4c0.2,0,0.4,0.1,0.4,0.3c0,0.3-0.2,0.3-0.5,0.3H145.2 M145.2,118h0.4l0.5,0.9h0.4
		l-0.6-0.9c0.3-0.1,0.5-0.2,0.5-0.6c0-0.4-0.3-0.6-0.7-0.6h-0.8v2h0.3L145.2,118L145.2,118z"/>
	<path class="st0" d="M145.5,116.2c-0.9,0-1.6,0.7-1.6,1.6c0,0.9,0.7,1.6,1.6,1.6c0.9,0,1.6-0.7,1.6-1.6
		C147.2,117,146.5,116.2,145.5,116.2 M147.5,117.9c0,1.1-0.9,2-2,2c-1.1,0-2-0.9-2-2c0-1.1,0.9-2,2-2
		C146.7,115.9,147.5,116.8,147.5,117.9z"/>
	<path class="st0" d="M443.7,117.2v-0.7h0.5c0.3,0,0.5,0.1,0.5,0.3c0,0.4-0.3,0.4-0.6,0.4L443.7,117.2 M443.7,117.5h0.4l0.6,1h0.4
		l-0.7-1c0.4-0.1,0.6-0.2,0.6-0.6c0-0.5-0.3-0.7-0.8-0.7h-0.9v2.3h0.4L443.7,117.5L443.7,117.5z"/>
	<path class="st0" d="M444.1,115.5c-1,0-1.9,0.8-1.9,1.9c0,1,0.8,1.9,1.9,1.9s1.9-0.8,1.9-1.9C446,116.3,445.1,115.5,444.1,115.5
		 M446.4,117.4c0,1.2-1,2.3-2.3,2.3c-1.2,0-2.3-1-2.3-2.3c0-1.2,1-2.3,2.3-2.3C445.3,115.1,446.4,116.1,446.4,117.4z"/>
</g>
</svg>
